<mxfile host="app.diagrams.net" agent="Mozilla/5.0 (Windows NT 10.0; Win64; x64) AppleWebKit/537.36 (KHTML, like Gecko) Chrome/140.0.0.0 Safari/537.36" version="28.2.5">
  <diagram name="Page-1" id="jnvlbrr125iBLWyPYiM4">
    <mxGraphModel dx="5210" dy="3040" grid="1" gridSize="10" guides="1" tooltips="1" connect="1" arrows="1" fold="1" page="1" pageScale="1" pageWidth="850" pageHeight="1100" math="0" shadow="0" adaptiveColors="none">
      <root>
        <mxCell id="0" />
        <mxCell id="1" parent="0" />
        <mxCell id="shRPoWkxmLKZgk2j-F8d-312" value="USER" style="shape=table;startSize=25;container=1;collapsible=0;childLayout=tableLayout;fixedRows=1;rowLines=1;fontStyle=1;align=center;resizeLast=1;fontSize=13;labelBackgroundColor=none;rounded=1;fillColor=#F45B69;strokeColor=#028090;fontColor=#E4FDE1;" vertex="1" parent="1">
          <mxGeometry x="2423" y="422" width="460" height="385" as="geometry" />
        </mxCell>
        <mxCell id="shRPoWkxmLKZgk2j-F8d-313" style="shape=tableRow;horizontal=0;startSize=0;swimlaneHead=0;swimlaneBody=0;fillColor=none;collapsible=0;dropTarget=0;points=[[0,0.5],[1,0.5]];portConstraint=eastwest;top=0;left=0;right=0;bottom=0;fontSize=13;labelBackgroundColor=none;rounded=1;strokeColor=#028090;fontColor=#E4FDE1;" vertex="1" parent="shRPoWkxmLKZgk2j-F8d-312">
          <mxGeometry y="25" width="460" height="45" as="geometry" />
        </mxCell>
        <mxCell id="shRPoWkxmLKZgk2j-F8d-314" value="BIGINT" style="shape=partialRectangle;connectable=0;fillColor=none;top=0;left=0;bottom=0;right=0;align=left;spacingLeft=2;overflow=hidden;fontSize=13;labelBackgroundColor=none;rounded=1;strokeColor=#028090;fontColor=#E4FDE1;" vertex="1" parent="shRPoWkxmLKZgk2j-F8d-313">
          <mxGeometry width="48" height="45" as="geometry">
            <mxRectangle width="48" height="45" as="alternateBounds" />
          </mxGeometry>
        </mxCell>
        <mxCell id="shRPoWkxmLKZgk2j-F8d-315" value="id" style="shape=partialRectangle;connectable=0;fillColor=none;top=0;left=0;bottom=0;right=0;align=left;spacingLeft=2;overflow=hidden;fontSize=13;labelBackgroundColor=none;rounded=1;strokeColor=#028090;fontColor=#E4FDE1;" vertex="1" parent="shRPoWkxmLKZgk2j-F8d-313">
          <mxGeometry x="48" width="244" height="45" as="geometry">
            <mxRectangle width="244" height="45" as="alternateBounds" />
          </mxGeometry>
        </mxCell>
        <mxCell id="shRPoWkxmLKZgk2j-F8d-316" value="PK: Auto-generated user ID" style="shape=partialRectangle;connectable=0;fillColor=none;top=0;left=0;bottom=0;right=0;align=left;spacingLeft=2;overflow=hidden;fontSize=13;labelBackgroundColor=none;rounded=1;strokeColor=#028090;fontColor=#E4FDE1;" vertex="1" parent="shRPoWkxmLKZgk2j-F8d-313">
          <mxGeometry x="292" width="168" height="45" as="geometry">
            <mxRectangle width="168" height="45" as="alternateBounds" />
          </mxGeometry>
        </mxCell>
        <mxCell id="shRPoWkxmLKZgk2j-F8d-317" style="shape=tableRow;horizontal=0;startSize=0;swimlaneHead=0;swimlaneBody=0;fillColor=none;collapsible=0;dropTarget=0;points=[[0,0.5],[1,0.5]];portConstraint=eastwest;top=0;left=0;right=0;bottom=0;fontSize=13;labelBackgroundColor=none;rounded=1;strokeColor=#028090;fontColor=#E4FDE1;" vertex="1" parent="shRPoWkxmLKZgk2j-F8d-312">
          <mxGeometry y="70" width="460" height="45" as="geometry" />
        </mxCell>
        <mxCell id="shRPoWkxmLKZgk2j-F8d-318" value="VARCHAR" style="shape=partialRectangle;connectable=0;fillColor=none;top=0;left=0;bottom=0;right=0;align=left;spacingLeft=2;overflow=hidden;fontSize=13;labelBackgroundColor=none;rounded=1;strokeColor=#028090;fontColor=#E4FDE1;" vertex="1" parent="shRPoWkxmLKZgk2j-F8d-317">
          <mxGeometry width="48" height="45" as="geometry">
            <mxRectangle width="48" height="45" as="alternateBounds" />
          </mxGeometry>
        </mxCell>
        <mxCell id="shRPoWkxmLKZgk2j-F8d-319" value="email" style="shape=partialRectangle;connectable=0;fillColor=none;top=0;left=0;bottom=0;right=0;align=left;spacingLeft=2;overflow=hidden;fontSize=13;labelBackgroundColor=none;rounded=1;strokeColor=#028090;fontColor=#E4FDE1;" vertex="1" parent="shRPoWkxmLKZgk2j-F8d-317">
          <mxGeometry x="48" width="244" height="45" as="geometry">
            <mxRectangle width="244" height="45" as="alternateBounds" />
          </mxGeometry>
        </mxCell>
        <mxCell id="shRPoWkxmLKZgk2j-F8d-320" value="Unique, login/authentication" style="shape=partialRectangle;connectable=0;fillColor=none;top=0;left=0;bottom=0;right=0;align=left;spacingLeft=2;overflow=hidden;fontSize=13;labelBackgroundColor=none;rounded=1;strokeColor=#028090;fontColor=#E4FDE1;" vertex="1" parent="shRPoWkxmLKZgk2j-F8d-317">
          <mxGeometry x="292" width="168" height="45" as="geometry">
            <mxRectangle width="168" height="45" as="alternateBounds" />
          </mxGeometry>
        </mxCell>
        <mxCell id="shRPoWkxmLKZgk2j-F8d-321" style="shape=tableRow;horizontal=0;startSize=0;swimlaneHead=0;swimlaneBody=0;fillColor=none;collapsible=0;dropTarget=0;points=[[0,0.5],[1,0.5]];portConstraint=eastwest;top=0;left=0;right=0;bottom=0;fontSize=13;labelBackgroundColor=none;rounded=1;strokeColor=#028090;fontColor=#E4FDE1;" vertex="1" parent="shRPoWkxmLKZgk2j-F8d-312">
          <mxGeometry y="115" width="460" height="45" as="geometry" />
        </mxCell>
        <mxCell id="shRPoWkxmLKZgk2j-F8d-322" value="VARCHAR" style="shape=partialRectangle;connectable=0;fillColor=none;top=0;left=0;bottom=0;right=0;align=left;spacingLeft=2;overflow=hidden;fontSize=13;labelBackgroundColor=none;rounded=1;strokeColor=#028090;fontColor=#E4FDE1;" vertex="1" parent="shRPoWkxmLKZgk2j-F8d-321">
          <mxGeometry width="48" height="45" as="geometry">
            <mxRectangle width="48" height="45" as="alternateBounds" />
          </mxGeometry>
        </mxCell>
        <mxCell id="shRPoWkxmLKZgk2j-F8d-323" value="password_hash" style="shape=partialRectangle;connectable=0;fillColor=none;top=0;left=0;bottom=0;right=0;align=left;spacingLeft=2;overflow=hidden;fontSize=13;labelBackgroundColor=none;rounded=1;strokeColor=#028090;fontColor=#E4FDE1;" vertex="1" parent="shRPoWkxmLKZgk2j-F8d-321">
          <mxGeometry x="48" width="244" height="45" as="geometry">
            <mxRectangle width="244" height="45" as="alternateBounds" />
          </mxGeometry>
        </mxCell>
        <mxCell id="shRPoWkxmLKZgk2j-F8d-324" value="BCrypt hash" style="shape=partialRectangle;connectable=0;fillColor=none;top=0;left=0;bottom=0;right=0;align=left;spacingLeft=2;overflow=hidden;fontSize=13;labelBackgroundColor=none;rounded=1;strokeColor=#028090;fontColor=#E4FDE1;" vertex="1" parent="shRPoWkxmLKZgk2j-F8d-321">
          <mxGeometry x="292" width="168" height="45" as="geometry">
            <mxRectangle width="168" height="45" as="alternateBounds" />
          </mxGeometry>
        </mxCell>
        <mxCell id="shRPoWkxmLKZgk2j-F8d-325" style="shape=tableRow;horizontal=0;startSize=0;swimlaneHead=0;swimlaneBody=0;fillColor=none;collapsible=0;dropTarget=0;points=[[0,0.5],[1,0.5]];portConstraint=eastwest;top=0;left=0;right=0;bottom=0;fontSize=13;labelBackgroundColor=none;rounded=1;strokeColor=#028090;fontColor=#E4FDE1;" vertex="1" parent="shRPoWkxmLKZgk2j-F8d-312">
          <mxGeometry y="160" width="460" height="45" as="geometry" />
        </mxCell>
        <mxCell id="shRPoWkxmLKZgk2j-F8d-326" value="VARCHAR" style="shape=partialRectangle;connectable=0;fillColor=none;top=0;left=0;bottom=0;right=0;align=left;spacingLeft=2;overflow=hidden;fontSize=13;labelBackgroundColor=none;rounded=1;strokeColor=#028090;fontColor=#E4FDE1;" vertex="1" parent="shRPoWkxmLKZgk2j-F8d-325">
          <mxGeometry width="48" height="45" as="geometry">
            <mxRectangle width="48" height="45" as="alternateBounds" />
          </mxGeometry>
        </mxCell>
        <mxCell id="shRPoWkxmLKZgk2j-F8d-327" value="name" style="shape=partialRectangle;connectable=0;fillColor=none;top=0;left=0;bottom=0;right=0;align=left;spacingLeft=2;overflow=hidden;fontSize=13;labelBackgroundColor=none;rounded=1;strokeColor=#028090;fontColor=#E4FDE1;" vertex="1" parent="shRPoWkxmLKZgk2j-F8d-325">
          <mxGeometry x="48" width="244" height="45" as="geometry">
            <mxRectangle width="244" height="45" as="alternateBounds" />
          </mxGeometry>
        </mxCell>
        <mxCell id="shRPoWkxmLKZgk2j-F8d-328" value="User&#39;s name" style="shape=partialRectangle;connectable=0;fillColor=none;top=0;left=0;bottom=0;right=0;align=left;spacingLeft=2;overflow=hidden;fontSize=13;labelBackgroundColor=none;rounded=1;strokeColor=#028090;fontColor=#E4FDE1;" vertex="1" parent="shRPoWkxmLKZgk2j-F8d-325">
          <mxGeometry x="292" width="168" height="45" as="geometry">
            <mxRectangle width="168" height="45" as="alternateBounds" />
          </mxGeometry>
        </mxCell>
        <mxCell id="shRPoWkxmLKZgk2j-F8d-329" style="shape=tableRow;horizontal=0;startSize=0;swimlaneHead=0;swimlaneBody=0;fillColor=none;collapsible=0;dropTarget=0;points=[[0,0.5],[1,0.5]];portConstraint=eastwest;top=0;left=0;right=0;bottom=0;fontSize=13;labelBackgroundColor=none;rounded=1;strokeColor=#028090;fontColor=#E4FDE1;" vertex="1" parent="shRPoWkxmLKZgk2j-F8d-312">
          <mxGeometry y="205" width="460" height="45" as="geometry" />
        </mxCell>
        <mxCell id="shRPoWkxmLKZgk2j-F8d-330" value="VARCHAR" style="shape=partialRectangle;connectable=0;fillColor=none;top=0;left=0;bottom=0;right=0;align=left;spacingLeft=2;overflow=hidden;fontSize=13;labelBackgroundColor=none;rounded=1;strokeColor=#028090;fontColor=#E4FDE1;" vertex="1" parent="shRPoWkxmLKZgk2j-F8d-329">
          <mxGeometry width="48" height="45" as="geometry">
            <mxRectangle width="48" height="45" as="alternateBounds" />
          </mxGeometry>
        </mxCell>
        <mxCell id="shRPoWkxmLKZgk2j-F8d-331" value="phone_number" style="shape=partialRectangle;connectable=0;fillColor=none;top=0;left=0;bottom=0;right=0;align=left;spacingLeft=2;overflow=hidden;fontSize=13;labelBackgroundColor=none;rounded=1;strokeColor=#028090;fontColor=#E4FDE1;" vertex="1" parent="shRPoWkxmLKZgk2j-F8d-329">
          <mxGeometry x="48" width="244" height="45" as="geometry">
            <mxRectangle width="244" height="45" as="alternateBounds" />
          </mxGeometry>
        </mxCell>
        <mxCell id="shRPoWkxmLKZgk2j-F8d-332" value="Unique contact" style="shape=partialRectangle;connectable=0;fillColor=none;top=0;left=0;bottom=0;right=0;align=left;spacingLeft=2;overflow=hidden;fontSize=13;labelBackgroundColor=none;rounded=1;strokeColor=#028090;fontColor=#E4FDE1;" vertex="1" parent="shRPoWkxmLKZgk2j-F8d-329">
          <mxGeometry x="292" width="168" height="45" as="geometry">
            <mxRectangle width="168" height="45" as="alternateBounds" />
          </mxGeometry>
        </mxCell>
        <mxCell id="shRPoWkxmLKZgk2j-F8d-333" style="shape=tableRow;horizontal=0;startSize=0;swimlaneHead=0;swimlaneBody=0;fillColor=none;collapsible=0;dropTarget=0;points=[[0,0.5],[1,0.5]];portConstraint=eastwest;top=0;left=0;right=0;bottom=0;fontSize=13;labelBackgroundColor=none;rounded=1;strokeColor=#028090;fontColor=#E4FDE1;" vertex="1" parent="shRPoWkxmLKZgk2j-F8d-312">
          <mxGeometry y="250" width="460" height="45" as="geometry" />
        </mxCell>
        <mxCell id="shRPoWkxmLKZgk2j-F8d-334" value="BIGINT" style="shape=partialRectangle;connectable=0;fillColor=none;top=0;left=0;bottom=0;right=0;align=left;spacingLeft=2;overflow=hidden;fontSize=13;labelBackgroundColor=none;rounded=1;strokeColor=#028090;fontColor=#E4FDE1;" vertex="1" parent="shRPoWkxmLKZgk2j-F8d-333">
          <mxGeometry width="48" height="45" as="geometry">
            <mxRectangle width="48" height="45" as="alternateBounds" />
          </mxGeometry>
        </mxCell>
        <mxCell id="shRPoWkxmLKZgk2j-F8d-335" value="role_id" style="shape=partialRectangle;connectable=0;fillColor=none;top=0;left=0;bottom=0;right=0;align=left;spacingLeft=2;overflow=hidden;fontSize=13;labelBackgroundColor=none;rounded=1;strokeColor=#028090;fontColor=#E4FDE1;" vertex="1" parent="shRPoWkxmLKZgk2j-F8d-333">
          <mxGeometry x="48" width="244" height="45" as="geometry">
            <mxRectangle width="244" height="45" as="alternateBounds" />
          </mxGeometry>
        </mxCell>
        <mxCell id="shRPoWkxmLKZgk2j-F8d-336" value="FK: Links to ROLE" style="shape=partialRectangle;connectable=0;fillColor=none;top=0;left=0;bottom=0;right=0;align=left;spacingLeft=2;overflow=hidden;fontSize=13;labelBackgroundColor=none;rounded=1;strokeColor=#028090;fontColor=#E4FDE1;" vertex="1" parent="shRPoWkxmLKZgk2j-F8d-333">
          <mxGeometry x="292" width="168" height="45" as="geometry">
            <mxRectangle width="168" height="45" as="alternateBounds" />
          </mxGeometry>
        </mxCell>
        <mxCell id="shRPoWkxmLKZgk2j-F8d-337" style="shape=tableRow;horizontal=0;startSize=0;swimlaneHead=0;swimlaneBody=0;fillColor=none;collapsible=0;dropTarget=0;points=[[0,0.5],[1,0.5]];portConstraint=eastwest;top=0;left=0;right=0;bottom=0;fontSize=13;labelBackgroundColor=none;rounded=1;strokeColor=#028090;fontColor=#E4FDE1;" vertex="1" parent="shRPoWkxmLKZgk2j-F8d-312">
          <mxGeometry y="295" width="460" height="45" as="geometry" />
        </mxCell>
        <mxCell id="shRPoWkxmLKZgk2j-F8d-338" value="BOOLEAN" style="shape=partialRectangle;connectable=0;fillColor=none;top=0;left=0;bottom=0;right=0;align=left;spacingLeft=2;overflow=hidden;fontSize=13;labelBackgroundColor=none;rounded=1;strokeColor=#028090;fontColor=#E4FDE1;" vertex="1" parent="shRPoWkxmLKZgk2j-F8d-337">
          <mxGeometry width="48" height="45" as="geometry">
            <mxRectangle width="48" height="45" as="alternateBounds" />
          </mxGeometry>
        </mxCell>
        <mxCell id="shRPoWkxmLKZgk2j-F8d-339" value="is_deleted" style="shape=partialRectangle;connectable=0;fillColor=none;top=0;left=0;bottom=0;right=0;align=left;spacingLeft=2;overflow=hidden;fontSize=13;labelBackgroundColor=none;rounded=1;strokeColor=#028090;fontColor=#E4FDE1;" vertex="1" parent="shRPoWkxmLKZgk2j-F8d-337">
          <mxGeometry x="48" width="244" height="45" as="geometry">
            <mxRectangle width="244" height="45" as="alternateBounds" />
          </mxGeometry>
        </mxCell>
        <mxCell id="shRPoWkxmLKZgk2j-F8d-340" value="Soft delete flag" style="shape=partialRectangle;connectable=0;fillColor=none;top=0;left=0;bottom=0;right=0;align=left;spacingLeft=2;overflow=hidden;fontSize=13;labelBackgroundColor=none;rounded=1;strokeColor=#028090;fontColor=#E4FDE1;" vertex="1" parent="shRPoWkxmLKZgk2j-F8d-337">
          <mxGeometry x="292" width="168" height="45" as="geometry">
            <mxRectangle width="168" height="45" as="alternateBounds" />
          </mxGeometry>
        </mxCell>
        <mxCell id="shRPoWkxmLKZgk2j-F8d-341" style="shape=tableRow;horizontal=0;startSize=0;swimlaneHead=0;swimlaneBody=0;fillColor=none;collapsible=0;dropTarget=0;points=[[0,0.5],[1,0.5]];portConstraint=eastwest;top=0;left=0;right=0;bottom=0;fontSize=13;labelBackgroundColor=none;rounded=1;strokeColor=#028090;fontColor=#E4FDE1;" vertex="1" parent="shRPoWkxmLKZgk2j-F8d-312">
          <mxGeometry y="340" width="460" height="45" as="geometry" />
        </mxCell>
        <mxCell id="shRPoWkxmLKZgk2j-F8d-342" value="DATETIME" style="shape=partialRectangle;connectable=0;fillColor=none;top=0;left=0;bottom=0;right=0;align=left;spacingLeft=2;overflow=hidden;fontSize=13;labelBackgroundColor=none;rounded=1;strokeColor=#028090;fontColor=#E4FDE1;" vertex="1" parent="shRPoWkxmLKZgk2j-F8d-341">
          <mxGeometry width="48" height="45" as="geometry">
            <mxRectangle width="48" height="45" as="alternateBounds" />
          </mxGeometry>
        </mxCell>
        <mxCell id="shRPoWkxmLKZgk2j-F8d-343" value="created_at" style="shape=partialRectangle;connectable=0;fillColor=none;top=0;left=0;bottom=0;right=0;align=left;spacingLeft=2;overflow=hidden;fontSize=13;labelBackgroundColor=none;rounded=1;strokeColor=#028090;fontColor=#E4FDE1;" vertex="1" parent="shRPoWkxmLKZgk2j-F8d-341">
          <mxGeometry x="48" width="244" height="45" as="geometry">
            <mxRectangle width="244" height="45" as="alternateBounds" />
          </mxGeometry>
        </mxCell>
        <mxCell id="shRPoWkxmLKZgk2j-F8d-344" value="Audit timestamp" style="shape=partialRectangle;connectable=0;fillColor=none;top=0;left=0;bottom=0;right=0;align=left;spacingLeft=2;overflow=hidden;fontSize=13;labelBackgroundColor=none;rounded=1;strokeColor=#028090;fontColor=#E4FDE1;" vertex="1" parent="shRPoWkxmLKZgk2j-F8d-341">
          <mxGeometry x="292" width="168" height="45" as="geometry">
            <mxRectangle width="168" height="45" as="alternateBounds" />
          </mxGeometry>
        </mxCell>
        <mxCell id="shRPoWkxmLKZgk2j-F8d-345" value="ROLE" style="shape=table;startSize=25;container=1;collapsible=0;childLayout=tableLayout;fixedRows=1;rowLines=1;fontStyle=1;align=center;resizeLast=1;fontSize=13;labelBackgroundColor=none;rounded=1;fillColor=#F45B69;strokeColor=#028090;fontColor=#E4FDE1;" vertex="1" parent="1">
          <mxGeometry x="2426" y="106" width="454" height="129" as="geometry" />
        </mxCell>
        <mxCell id="shRPoWkxmLKZgk2j-F8d-346" style="shape=tableRow;horizontal=0;startSize=0;swimlaneHead=0;swimlaneBody=0;fillColor=none;collapsible=0;dropTarget=0;points=[[0,0.5],[1,0.5]];portConstraint=eastwest;top=0;left=0;right=0;bottom=0;fontSize=13;labelBackgroundColor=none;rounded=1;strokeColor=#028090;fontColor=#E4FDE1;" vertex="1" parent="shRPoWkxmLKZgk2j-F8d-345">
          <mxGeometry y="25" width="454" height="52" as="geometry" />
        </mxCell>
        <mxCell id="shRPoWkxmLKZgk2j-F8d-347" value="BIGINT" style="shape=partialRectangle;connectable=0;fillColor=none;top=0;left=0;bottom=0;right=0;align=left;spacingLeft=2;overflow=hidden;fontSize=13;labelBackgroundColor=none;rounded=1;strokeColor=#028090;fontColor=#E4FDE1;" vertex="1" parent="shRPoWkxmLKZgk2j-F8d-346">
          <mxGeometry width="42" height="52" as="geometry">
            <mxRectangle width="42" height="52" as="alternateBounds" />
          </mxGeometry>
        </mxCell>
        <mxCell id="shRPoWkxmLKZgk2j-F8d-348" value="id" style="shape=partialRectangle;connectable=0;fillColor=none;top=0;left=0;bottom=0;right=0;align=left;spacingLeft=2;overflow=hidden;fontSize=13;labelBackgroundColor=none;rounded=1;strokeColor=#028090;fontColor=#E4FDE1;" vertex="1" parent="shRPoWkxmLKZgk2j-F8d-346">
          <mxGeometry x="42" width="208" height="52" as="geometry">
            <mxRectangle width="208" height="52" as="alternateBounds" />
          </mxGeometry>
        </mxCell>
        <mxCell id="shRPoWkxmLKZgk2j-F8d-349" value="PK: Unique role ID" style="shape=partialRectangle;connectable=0;fillColor=none;top=0;left=0;bottom=0;right=0;align=left;spacingLeft=2;overflow=hidden;fontSize=13;labelBackgroundColor=none;rounded=1;strokeColor=#028090;fontColor=#E4FDE1;" vertex="1" parent="shRPoWkxmLKZgk2j-F8d-346">
          <mxGeometry x="250" width="204" height="52" as="geometry">
            <mxRectangle width="204" height="52" as="alternateBounds" />
          </mxGeometry>
        </mxCell>
        <mxCell id="shRPoWkxmLKZgk2j-F8d-350" style="shape=tableRow;horizontal=0;startSize=0;swimlaneHead=0;swimlaneBody=0;fillColor=none;collapsible=0;dropTarget=0;points=[[0,0.5],[1,0.5]];portConstraint=eastwest;top=0;left=0;right=0;bottom=0;fontSize=13;labelBackgroundColor=none;rounded=1;strokeColor=#028090;fontColor=#E4FDE1;" vertex="1" parent="shRPoWkxmLKZgk2j-F8d-345">
          <mxGeometry y="77" width="454" height="52" as="geometry" />
        </mxCell>
        <mxCell id="shRPoWkxmLKZgk2j-F8d-351" value="VARCHAR" style="shape=partialRectangle;connectable=0;fillColor=none;top=0;left=0;bottom=0;right=0;align=left;spacingLeft=2;overflow=hidden;fontSize=13;labelBackgroundColor=none;rounded=1;strokeColor=#028090;fontColor=#E4FDE1;" vertex="1" parent="shRPoWkxmLKZgk2j-F8d-350">
          <mxGeometry width="42" height="52" as="geometry">
            <mxRectangle width="42" height="52" as="alternateBounds" />
          </mxGeometry>
        </mxCell>
        <mxCell id="shRPoWkxmLKZgk2j-F8d-352" value="name" style="shape=partialRectangle;connectable=0;fillColor=none;top=0;left=0;bottom=0;right=0;align=left;spacingLeft=2;overflow=hidden;fontSize=13;labelBackgroundColor=none;rounded=1;strokeColor=#028090;fontColor=#E4FDE1;" vertex="1" parent="shRPoWkxmLKZgk2j-F8d-350">
          <mxGeometry x="42" width="208" height="52" as="geometry">
            <mxRectangle width="208" height="52" as="alternateBounds" />
          </mxGeometry>
        </mxCell>
        <mxCell id="shRPoWkxmLKZgk2j-F8d-353" value="Role name (CUSTOMER, RIDER, ADMIN)" style="shape=partialRectangle;connectable=0;fillColor=none;top=0;left=0;bottom=0;right=0;align=left;spacingLeft=2;overflow=hidden;fontSize=13;labelBackgroundColor=none;rounded=1;strokeColor=#028090;fontColor=#E4FDE1;" vertex="1" parent="shRPoWkxmLKZgk2j-F8d-350">
          <mxGeometry x="250" width="204" height="52" as="geometry">
            <mxRectangle width="204" height="52" as="alternateBounds" />
          </mxGeometry>
        </mxCell>
        <mxCell id="shRPoWkxmLKZgk2j-F8d-354" value="PARCEL_BOOKING" style="shape=table;startSize=25;container=1;collapsible=0;childLayout=tableLayout;fixedRows=1;rowLines=1;fontStyle=1;align=center;resizeLast=1;fontSize=13;labelBackgroundColor=none;rounded=1;fillColor=#F45B69;strokeColor=#028090;fontColor=#E4FDE1;" vertex="1" parent="1">
          <mxGeometry x="20" y="909" width="579" height="513" as="geometry" />
        </mxCell>
        <mxCell id="shRPoWkxmLKZgk2j-F8d-355" style="shape=tableRow;horizontal=0;startSize=0;swimlaneHead=0;swimlaneBody=0;fillColor=none;collapsible=0;dropTarget=0;points=[[0,0.5],[1,0.5]];portConstraint=eastwest;top=0;left=0;right=0;bottom=0;fontSize=13;labelBackgroundColor=none;rounded=1;strokeColor=#028090;fontColor=#E4FDE1;" vertex="1" parent="shRPoWkxmLKZgk2j-F8d-354">
          <mxGeometry y="25" width="579" height="44" as="geometry" />
        </mxCell>
        <mxCell id="shRPoWkxmLKZgk2j-F8d-356" value="BIGINT" style="shape=partialRectangle;connectable=0;fillColor=none;top=0;left=0;bottom=0;right=0;align=left;spacingLeft=2;overflow=hidden;fontSize=13;labelBackgroundColor=none;rounded=1;strokeColor=#028090;fontColor=#E4FDE1;" vertex="1" parent="shRPoWkxmLKZgk2j-F8d-355">
          <mxGeometry width="48" height="44" as="geometry">
            <mxRectangle width="48" height="44" as="alternateBounds" />
          </mxGeometry>
        </mxCell>
        <mxCell id="shRPoWkxmLKZgk2j-F8d-357" value="id" style="shape=partialRectangle;connectable=0;fillColor=none;top=0;left=0;bottom=0;right=0;align=left;spacingLeft=2;overflow=hidden;fontSize=13;labelBackgroundColor=none;rounded=1;strokeColor=#028090;fontColor=#E4FDE1;" vertex="1" parent="shRPoWkxmLKZgk2j-F8d-355">
          <mxGeometry x="48" width="297" height="44" as="geometry">
            <mxRectangle width="297" height="44" as="alternateBounds" />
          </mxGeometry>
        </mxCell>
        <mxCell id="shRPoWkxmLKZgk2j-F8d-358" value="PK: Booking ID" style="shape=partialRectangle;connectable=0;fillColor=none;top=0;left=0;bottom=0;right=0;align=left;spacingLeft=2;overflow=hidden;fontSize=13;labelBackgroundColor=none;rounded=1;strokeColor=#028090;fontColor=#E4FDE1;" vertex="1" parent="shRPoWkxmLKZgk2j-F8d-355">
          <mxGeometry x="345" width="234" height="44" as="geometry">
            <mxRectangle width="234" height="44" as="alternateBounds" />
          </mxGeometry>
        </mxCell>
        <mxCell id="shRPoWkxmLKZgk2j-F8d-359" style="shape=tableRow;horizontal=0;startSize=0;swimlaneHead=0;swimlaneBody=0;fillColor=none;collapsible=0;dropTarget=0;points=[[0,0.5],[1,0.5]];portConstraint=eastwest;top=0;left=0;right=0;bottom=0;fontSize=13;labelBackgroundColor=none;rounded=1;strokeColor=#028090;fontColor=#E4FDE1;" vertex="1" parent="shRPoWkxmLKZgk2j-F8d-354">
          <mxGeometry y="69" width="579" height="44" as="geometry" />
        </mxCell>
        <mxCell id="shRPoWkxmLKZgk2j-F8d-360" value="BIGINT" style="shape=partialRectangle;connectable=0;fillColor=none;top=0;left=0;bottom=0;right=0;align=left;spacingLeft=2;overflow=hidden;fontSize=13;labelBackgroundColor=none;rounded=1;strokeColor=#028090;fontColor=#E4FDE1;" vertex="1" parent="shRPoWkxmLKZgk2j-F8d-359">
          <mxGeometry width="48" height="44" as="geometry">
            <mxRectangle width="48" height="44" as="alternateBounds" />
          </mxGeometry>
        </mxCell>
        <mxCell id="shRPoWkxmLKZgk2j-F8d-361" value="customer_id" style="shape=partialRectangle;connectable=0;fillColor=none;top=0;left=0;bottom=0;right=0;align=left;spacingLeft=2;overflow=hidden;fontSize=13;labelBackgroundColor=none;rounded=1;strokeColor=#028090;fontColor=#E4FDE1;" vertex="1" parent="shRPoWkxmLKZgk2j-F8d-359">
          <mxGeometry x="48" width="297" height="44" as="geometry">
            <mxRectangle width="297" height="44" as="alternateBounds" />
          </mxGeometry>
        </mxCell>
        <mxCell id="shRPoWkxmLKZgk2j-F8d-362" value="FK: USER.id (Customer)" style="shape=partialRectangle;connectable=0;fillColor=none;top=0;left=0;bottom=0;right=0;align=left;spacingLeft=2;overflow=hidden;fontSize=13;labelBackgroundColor=none;rounded=1;strokeColor=#028090;fontColor=#E4FDE1;" vertex="1" parent="shRPoWkxmLKZgk2j-F8d-359">
          <mxGeometry x="345" width="234" height="44" as="geometry">
            <mxRectangle width="234" height="44" as="alternateBounds" />
          </mxGeometry>
        </mxCell>
        <mxCell id="shRPoWkxmLKZgk2j-F8d-363" style="shape=tableRow;horizontal=0;startSize=0;swimlaneHead=0;swimlaneBody=0;fillColor=none;collapsible=0;dropTarget=0;points=[[0,0.5],[1,0.5]];portConstraint=eastwest;top=0;left=0;right=0;bottom=0;fontSize=13;labelBackgroundColor=none;rounded=1;strokeColor=#028090;fontColor=#E4FDE1;" vertex="1" parent="shRPoWkxmLKZgk2j-F8d-354">
          <mxGeometry y="113" width="579" height="44" as="geometry" />
        </mxCell>
        <mxCell id="shRPoWkxmLKZgk2j-F8d-364" value="BIGINT" style="shape=partialRectangle;connectable=0;fillColor=none;top=0;left=0;bottom=0;right=0;align=left;spacingLeft=2;overflow=hidden;fontSize=13;labelBackgroundColor=none;rounded=1;strokeColor=#028090;fontColor=#E4FDE1;" vertex="1" parent="shRPoWkxmLKZgk2j-F8d-363">
          <mxGeometry width="48" height="44" as="geometry">
            <mxRectangle width="48" height="44" as="alternateBounds" />
          </mxGeometry>
        </mxCell>
        <mxCell id="shRPoWkxmLKZgk2j-F8d-365" value="rider_id" style="shape=partialRectangle;connectable=0;fillColor=none;top=0;left=0;bottom=0;right=0;align=left;spacingLeft=2;overflow=hidden;fontSize=13;labelBackgroundColor=none;rounded=1;strokeColor=#028090;fontColor=#E4FDE1;" vertex="1" parent="shRPoWkxmLKZgk2j-F8d-363">
          <mxGeometry x="48" width="297" height="44" as="geometry">
            <mxRectangle width="297" height="44" as="alternateBounds" />
          </mxGeometry>
        </mxCell>
        <mxCell id="shRPoWkxmLKZgk2j-F8d-366" value="FK: USER.id (Rider)" style="shape=partialRectangle;connectable=0;fillColor=none;top=0;left=0;bottom=0;right=0;align=left;spacingLeft=2;overflow=hidden;fontSize=13;labelBackgroundColor=none;rounded=1;strokeColor=#028090;fontColor=#E4FDE1;" vertex="1" parent="shRPoWkxmLKZgk2j-F8d-363">
          <mxGeometry x="345" width="234" height="44" as="geometry">
            <mxRectangle width="234" height="44" as="alternateBounds" />
          </mxGeometry>
        </mxCell>
        <mxCell id="shRPoWkxmLKZgk2j-F8d-367" style="shape=tableRow;horizontal=0;startSize=0;swimlaneHead=0;swimlaneBody=0;fillColor=none;collapsible=0;dropTarget=0;points=[[0,0.5],[1,0.5]];portConstraint=eastwest;top=0;left=0;right=0;bottom=0;fontSize=13;labelBackgroundColor=none;rounded=1;strokeColor=#028090;fontColor=#E4FDE1;" vertex="1" parent="shRPoWkxmLKZgk2j-F8d-354">
          <mxGeometry y="157" width="579" height="44" as="geometry" />
        </mxCell>
        <mxCell id="shRPoWkxmLKZgk2j-F8d-368" value="VARCHAR" style="shape=partialRectangle;connectable=0;fillColor=none;top=0;left=0;bottom=0;right=0;align=left;spacingLeft=2;overflow=hidden;fontSize=13;labelBackgroundColor=none;rounded=1;strokeColor=#028090;fontColor=#E4FDE1;" vertex="1" parent="shRPoWkxmLKZgk2j-F8d-367">
          <mxGeometry width="48" height="44" as="geometry">
            <mxRectangle width="48" height="44" as="alternateBounds" />
          </mxGeometry>
        </mxCell>
        <mxCell id="shRPoWkxmLKZgk2j-F8d-369" value="status" style="shape=partialRectangle;connectable=0;fillColor=none;top=0;left=0;bottom=0;right=0;align=left;spacingLeft=2;overflow=hidden;fontSize=13;labelBackgroundColor=none;rounded=1;strokeColor=#028090;fontColor=#E4FDE1;" vertex="1" parent="shRPoWkxmLKZgk2j-F8d-367">
          <mxGeometry x="48" width="297" height="44" as="geometry">
            <mxRectangle width="297" height="44" as="alternateBounds" />
          </mxGeometry>
        </mxCell>
        <mxCell id="shRPoWkxmLKZgk2j-F8d-370" value="PENDING, ACCEPTED, PICKED_UP, DELIVERED" style="shape=partialRectangle;connectable=0;fillColor=none;top=0;left=0;bottom=0;right=0;align=left;spacingLeft=2;overflow=hidden;fontSize=13;labelBackgroundColor=none;rounded=1;strokeColor=#028090;fontColor=#E4FDE1;" vertex="1" parent="shRPoWkxmLKZgk2j-F8d-367">
          <mxGeometry x="345" width="234" height="44" as="geometry">
            <mxRectangle width="234" height="44" as="alternateBounds" />
          </mxGeometry>
        </mxCell>
        <mxCell id="shRPoWkxmLKZgk2j-F8d-371" style="shape=tableRow;horizontal=0;startSize=0;swimlaneHead=0;swimlaneBody=0;fillColor=none;collapsible=0;dropTarget=0;points=[[0,0.5],[1,0.5]];portConstraint=eastwest;top=0;left=0;right=0;bottom=0;fontSize=13;labelBackgroundColor=none;rounded=1;strokeColor=#028090;fontColor=#E4FDE1;" vertex="1" parent="shRPoWkxmLKZgk2j-F8d-354">
          <mxGeometry y="201" width="579" height="44" as="geometry" />
        </mxCell>
        <mxCell id="shRPoWkxmLKZgk2j-F8d-372" value="TEXT" style="shape=partialRectangle;connectable=0;fillColor=none;top=0;left=0;bottom=0;right=0;align=left;spacingLeft=2;overflow=hidden;fontSize=13;labelBackgroundColor=none;rounded=1;strokeColor=#028090;fontColor=#E4FDE1;" vertex="1" parent="shRPoWkxmLKZgk2j-F8d-371">
          <mxGeometry width="48" height="44" as="geometry">
            <mxRectangle width="48" height="44" as="alternateBounds" />
          </mxGeometry>
        </mxCell>
        <mxCell id="shRPoWkxmLKZgk2j-F8d-373" value="pickup_address" style="shape=partialRectangle;connectable=0;fillColor=none;top=0;left=0;bottom=0;right=0;align=left;spacingLeft=2;overflow=hidden;fontSize=13;labelBackgroundColor=none;rounded=1;strokeColor=#028090;fontColor=#E4FDE1;" vertex="1" parent="shRPoWkxmLKZgk2j-F8d-371">
          <mxGeometry x="48" width="297" height="44" as="geometry">
            <mxRectangle width="297" height="44" as="alternateBounds" />
          </mxGeometry>
        </mxCell>
        <mxCell id="shRPoWkxmLKZgk2j-F8d-374" value="Full pickup address" style="shape=partialRectangle;connectable=0;fillColor=none;top=0;left=0;bottom=0;right=0;align=left;spacingLeft=2;overflow=hidden;fontSize=13;labelBackgroundColor=none;rounded=1;strokeColor=#028090;fontColor=#E4FDE1;" vertex="1" parent="shRPoWkxmLKZgk2j-F8d-371">
          <mxGeometry x="345" width="234" height="44" as="geometry">
            <mxRectangle width="234" height="44" as="alternateBounds" />
          </mxGeometry>
        </mxCell>
        <mxCell id="shRPoWkxmLKZgk2j-F8d-375" style="shape=tableRow;horizontal=0;startSize=0;swimlaneHead=0;swimlaneBody=0;fillColor=none;collapsible=0;dropTarget=0;points=[[0,0.5],[1,0.5]];portConstraint=eastwest;top=0;left=0;right=0;bottom=0;fontSize=13;labelBackgroundColor=none;rounded=1;strokeColor=#028090;fontColor=#E4FDE1;" vertex="1" parent="shRPoWkxmLKZgk2j-F8d-354">
          <mxGeometry y="245" width="579" height="44" as="geometry" />
        </mxCell>
        <mxCell id="shRPoWkxmLKZgk2j-F8d-376" value="TEXT" style="shape=partialRectangle;connectable=0;fillColor=none;top=0;left=0;bottom=0;right=0;align=left;spacingLeft=2;overflow=hidden;fontSize=13;labelBackgroundColor=none;rounded=1;strokeColor=#028090;fontColor=#E4FDE1;" vertex="1" parent="shRPoWkxmLKZgk2j-F8d-375">
          <mxGeometry width="48" height="44" as="geometry">
            <mxRectangle width="48" height="44" as="alternateBounds" />
          </mxGeometry>
        </mxCell>
        <mxCell id="shRPoWkxmLKZgk2j-F8d-377" value="dropoff_address" style="shape=partialRectangle;connectable=0;fillColor=none;top=0;left=0;bottom=0;right=0;align=left;spacingLeft=2;overflow=hidden;fontSize=13;labelBackgroundColor=none;rounded=1;strokeColor=#028090;fontColor=#E4FDE1;" vertex="1" parent="shRPoWkxmLKZgk2j-F8d-375">
          <mxGeometry x="48" width="297" height="44" as="geometry">
            <mxRectangle width="297" height="44" as="alternateBounds" />
          </mxGeometry>
        </mxCell>
        <mxCell id="shRPoWkxmLKZgk2j-F8d-378" value="Full drop-off address" style="shape=partialRectangle;connectable=0;fillColor=none;top=0;left=0;bottom=0;right=0;align=left;spacingLeft=2;overflow=hidden;fontSize=13;labelBackgroundColor=none;rounded=1;strokeColor=#028090;fontColor=#E4FDE1;" vertex="1" parent="shRPoWkxmLKZgk2j-F8d-375">
          <mxGeometry x="345" width="234" height="44" as="geometry">
            <mxRectangle width="234" height="44" as="alternateBounds" />
          </mxGeometry>
        </mxCell>
        <mxCell id="shRPoWkxmLKZgk2j-F8d-379" style="shape=tableRow;horizontal=0;startSize=0;swimlaneHead=0;swimlaneBody=0;fillColor=none;collapsible=0;dropTarget=0;points=[[0,0.5],[1,0.5]];portConstraint=eastwest;top=0;left=0;right=0;bottom=0;fontSize=13;labelBackgroundColor=none;rounded=1;strokeColor=#028090;fontColor=#E4FDE1;" vertex="1" parent="shRPoWkxmLKZgk2j-F8d-354">
          <mxGeometry y="289" width="579" height="44" as="geometry" />
        </mxCell>
        <mxCell id="shRPoWkxmLKZgk2j-F8d-380" value="VARCHAR" style="shape=partialRectangle;connectable=0;fillColor=none;top=0;left=0;bottom=0;right=0;align=left;spacingLeft=2;overflow=hidden;fontSize=13;labelBackgroundColor=none;rounded=1;strokeColor=#028090;fontColor=#E4FDE1;" vertex="1" parent="shRPoWkxmLKZgk2j-F8d-379">
          <mxGeometry width="48" height="44" as="geometry">
            <mxRectangle width="48" height="44" as="alternateBounds" />
          </mxGeometry>
        </mxCell>
        <mxCell id="shRPoWkxmLKZgk2j-F8d-381" value="pickup_otp" style="shape=partialRectangle;connectable=0;fillColor=none;top=0;left=0;bottom=0;right=0;align=left;spacingLeft=2;overflow=hidden;fontSize=13;labelBackgroundColor=none;rounded=1;strokeColor=#028090;fontColor=#E4FDE1;" vertex="1" parent="shRPoWkxmLKZgk2j-F8d-379">
          <mxGeometry x="48" width="297" height="44" as="geometry">
            <mxRectangle width="297" height="44" as="alternateBounds" />
          </mxGeometry>
        </mxCell>
        <mxCell id="shRPoWkxmLKZgk2j-F8d-382" value="OTP for rider" style="shape=partialRectangle;connectable=0;fillColor=none;top=0;left=0;bottom=0;right=0;align=left;spacingLeft=2;overflow=hidden;fontSize=13;labelBackgroundColor=none;rounded=1;strokeColor=#028090;fontColor=#E4FDE1;" vertex="1" parent="shRPoWkxmLKZgk2j-F8d-379">
          <mxGeometry x="345" width="234" height="44" as="geometry">
            <mxRectangle width="234" height="44" as="alternateBounds" />
          </mxGeometry>
        </mxCell>
        <mxCell id="shRPoWkxmLKZgk2j-F8d-383" style="shape=tableRow;horizontal=0;startSize=0;swimlaneHead=0;swimlaneBody=0;fillColor=none;collapsible=0;dropTarget=0;points=[[0,0.5],[1,0.5]];portConstraint=eastwest;top=0;left=0;right=0;bottom=0;fontSize=13;labelBackgroundColor=none;rounded=1;strokeColor=#028090;fontColor=#E4FDE1;" vertex="1" parent="shRPoWkxmLKZgk2j-F8d-354">
          <mxGeometry y="333" width="579" height="44" as="geometry" />
        </mxCell>
        <mxCell id="shRPoWkxmLKZgk2j-F8d-384" value="VARCHAR" style="shape=partialRectangle;connectable=0;fillColor=none;top=0;left=0;bottom=0;right=0;align=left;spacingLeft=2;overflow=hidden;fontSize=13;labelBackgroundColor=none;rounded=1;strokeColor=#028090;fontColor=#E4FDE1;" vertex="1" parent="shRPoWkxmLKZgk2j-F8d-383">
          <mxGeometry width="48" height="44" as="geometry">
            <mxRectangle width="48" height="44" as="alternateBounds" />
          </mxGeometry>
        </mxCell>
        <mxCell id="shRPoWkxmLKZgk2j-F8d-385" value="delivery_otp" style="shape=partialRectangle;connectable=0;fillColor=none;top=0;left=0;bottom=0;right=0;align=left;spacingLeft=2;overflow=hidden;fontSize=13;labelBackgroundColor=none;rounded=1;strokeColor=#028090;fontColor=#E4FDE1;" vertex="1" parent="shRPoWkxmLKZgk2j-F8d-383">
          <mxGeometry x="48" width="297" height="44" as="geometry">
            <mxRectangle width="297" height="44" as="alternateBounds" />
          </mxGeometry>
        </mxCell>
        <mxCell id="shRPoWkxmLKZgk2j-F8d-386" value="OTP for customer" style="shape=partialRectangle;connectable=0;fillColor=none;top=0;left=0;bottom=0;right=0;align=left;spacingLeft=2;overflow=hidden;fontSize=13;labelBackgroundColor=none;rounded=1;strokeColor=#028090;fontColor=#E4FDE1;" vertex="1" parent="shRPoWkxmLKZgk2j-F8d-383">
          <mxGeometry x="345" width="234" height="44" as="geometry">
            <mxRectangle width="234" height="44" as="alternateBounds" />
          </mxGeometry>
        </mxCell>
        <mxCell id="shRPoWkxmLKZgk2j-F8d-387" style="shape=tableRow;horizontal=0;startSize=0;swimlaneHead=0;swimlaneBody=0;fillColor=none;collapsible=0;dropTarget=0;points=[[0,0.5],[1,0.5]];portConstraint=eastwest;top=0;left=0;right=0;bottom=0;fontSize=13;labelBackgroundColor=none;rounded=1;strokeColor=#028090;fontColor=#E4FDE1;" vertex="1" parent="shRPoWkxmLKZgk2j-F8d-354">
          <mxGeometry y="377" width="579" height="44" as="geometry" />
        </mxCell>
        <mxCell id="shRPoWkxmLKZgk2j-F8d-388" value="DECIMAL" style="shape=partialRectangle;connectable=0;fillColor=none;top=0;left=0;bottom=0;right=0;align=left;spacingLeft=2;overflow=hidden;fontSize=13;labelBackgroundColor=none;rounded=1;strokeColor=#028090;fontColor=#E4FDE1;" vertex="1" parent="shRPoWkxmLKZgk2j-F8d-387">
          <mxGeometry width="48" height="44" as="geometry">
            <mxRectangle width="48" height="44" as="alternateBounds" />
          </mxGeometry>
        </mxCell>
        <mxCell id="shRPoWkxmLKZgk2j-F8d-389" value="weight_kg" style="shape=partialRectangle;connectable=0;fillColor=none;top=0;left=0;bottom=0;right=0;align=left;spacingLeft=2;overflow=hidden;fontSize=13;labelBackgroundColor=none;rounded=1;strokeColor=#028090;fontColor=#E4FDE1;" vertex="1" parent="shRPoWkxmLKZgk2j-F8d-387">
          <mxGeometry x="48" width="297" height="44" as="geometry">
            <mxRectangle width="297" height="44" as="alternateBounds" />
          </mxGeometry>
        </mxCell>
        <mxCell id="shRPoWkxmLKZgk2j-F8d-390" value="Parcel weight" style="shape=partialRectangle;connectable=0;fillColor=none;top=0;left=0;bottom=0;right=0;align=left;spacingLeft=2;overflow=hidden;fontSize=13;labelBackgroundColor=none;rounded=1;strokeColor=#028090;fontColor=#E4FDE1;" vertex="1" parent="shRPoWkxmLKZgk2j-F8d-387">
          <mxGeometry x="345" width="234" height="44" as="geometry">
            <mxRectangle width="234" height="44" as="alternateBounds" />
          </mxGeometry>
        </mxCell>
        <mxCell id="shRPoWkxmLKZgk2j-F8d-391" style="shape=tableRow;horizontal=0;startSize=0;swimlaneHead=0;swimlaneBody=0;fillColor=none;collapsible=0;dropTarget=0;points=[[0,0.5],[1,0.5]];portConstraint=eastwest;top=0;left=0;right=0;bottom=0;fontSize=13;labelBackgroundColor=none;rounded=1;strokeColor=#028090;fontColor=#E4FDE1;" vertex="1" parent="shRPoWkxmLKZgk2j-F8d-354">
          <mxGeometry y="421" width="579" height="44" as="geometry" />
        </mxCell>
        <mxCell id="shRPoWkxmLKZgk2j-F8d-392" value="DECIMAL" style="shape=partialRectangle;connectable=0;fillColor=none;top=0;left=0;bottom=0;right=0;align=left;spacingLeft=2;overflow=hidden;fontSize=13;labelBackgroundColor=none;rounded=1;strokeColor=#028090;fontColor=#E4FDE1;" vertex="1" parent="shRPoWkxmLKZgk2j-F8d-391">
          <mxGeometry width="48" height="44" as="geometry">
            <mxRectangle width="48" height="44" as="alternateBounds" />
          </mxGeometry>
        </mxCell>
        <mxCell id="shRPoWkxmLKZgk2j-F8d-393" value="estimated_fare" style="shape=partialRectangle;connectable=0;fillColor=none;top=0;left=0;bottom=0;right=0;align=left;spacingLeft=2;overflow=hidden;fontSize=13;labelBackgroundColor=none;rounded=1;strokeColor=#028090;fontColor=#E4FDE1;" vertex="1" parent="shRPoWkxmLKZgk2j-F8d-391">
          <mxGeometry x="48" width="297" height="44" as="geometry">
            <mxRectangle width="297" height="44" as="alternateBounds" />
          </mxGeometry>
        </mxCell>
        <mxCell id="shRPoWkxmLKZgk2j-F8d-394" value="Fare calculated" style="shape=partialRectangle;connectable=0;fillColor=none;top=0;left=0;bottom=0;right=0;align=left;spacingLeft=2;overflow=hidden;fontSize=13;labelBackgroundColor=none;rounded=1;strokeColor=#028090;fontColor=#E4FDE1;" vertex="1" parent="shRPoWkxmLKZgk2j-F8d-391">
          <mxGeometry x="345" width="234" height="44" as="geometry">
            <mxRectangle width="234" height="44" as="alternateBounds" />
          </mxGeometry>
        </mxCell>
        <mxCell id="shRPoWkxmLKZgk2j-F8d-395" style="shape=tableRow;horizontal=0;startSize=0;swimlaneHead=0;swimlaneBody=0;fillColor=none;collapsible=0;dropTarget=0;points=[[0,0.5],[1,0.5]];portConstraint=eastwest;top=0;left=0;right=0;bottom=0;fontSize=13;labelBackgroundColor=none;rounded=1;strokeColor=#028090;fontColor=#E4FDE1;" vertex="1" parent="shRPoWkxmLKZgk2j-F8d-354">
          <mxGeometry y="465" width="579" height="44" as="geometry" />
        </mxCell>
        <mxCell id="shRPoWkxmLKZgk2j-F8d-396" value="DATETIME" style="shape=partialRectangle;connectable=0;fillColor=none;top=0;left=0;bottom=0;right=0;align=left;spacingLeft=2;overflow=hidden;fontSize=13;labelBackgroundColor=none;rounded=1;strokeColor=#028090;fontColor=#E4FDE1;" vertex="1" parent="shRPoWkxmLKZgk2j-F8d-395">
          <mxGeometry width="48" height="44" as="geometry">
            <mxRectangle width="48" height="44" as="alternateBounds" />
          </mxGeometry>
        </mxCell>
        <mxCell id="shRPoWkxmLKZgk2j-F8d-397" value="booking_time" style="shape=partialRectangle;connectable=0;fillColor=none;top=0;left=0;bottom=0;right=0;align=left;spacingLeft=2;overflow=hidden;fontSize=13;labelBackgroundColor=none;rounded=1;strokeColor=#028090;fontColor=#E4FDE1;" vertex="1" parent="shRPoWkxmLKZgk2j-F8d-395">
          <mxGeometry x="48" width="297" height="44" as="geometry">
            <mxRectangle width="297" height="44" as="alternateBounds" />
          </mxGeometry>
        </mxCell>
        <mxCell id="shRPoWkxmLKZgk2j-F8d-398" value="Booking timestamp" style="shape=partialRectangle;connectable=0;fillColor=none;top=0;left=0;bottom=0;right=0;align=left;spacingLeft=2;overflow=hidden;fontSize=13;labelBackgroundColor=none;rounded=1;strokeColor=#028090;fontColor=#E4FDE1;" vertex="1" parent="shRPoWkxmLKZgk2j-F8d-395">
          <mxGeometry x="345" width="234" height="44" as="geometry">
            <mxRectangle width="234" height="44" as="alternateBounds" />
          </mxGeometry>
        </mxCell>
        <mxCell id="shRPoWkxmLKZgk2j-F8d-399" value="DELIVERY_STATUS_HISTORY" style="shape=table;startSize=25;container=1;collapsible=0;childLayout=tableLayout;fixedRows=1;rowLines=1;fontStyle=1;align=center;resizeLast=1;fontSize=13;labelBackgroundColor=none;rounded=1;fillColor=#F45B69;strokeColor=#028090;fontColor=#E4FDE1;" vertex="1" parent="1">
          <mxGeometry x="50" y="1567" width="398" height="214" as="geometry" />
        </mxCell>
        <mxCell id="shRPoWkxmLKZgk2j-F8d-400" style="shape=tableRow;horizontal=0;startSize=0;swimlaneHead=0;swimlaneBody=0;fillColor=none;collapsible=0;dropTarget=0;points=[[0,0.5],[1,0.5]];portConstraint=eastwest;top=0;left=0;right=0;bottom=0;fontSize=13;labelBackgroundColor=none;rounded=1;strokeColor=#028090;fontColor=#E4FDE1;" vertex="1" parent="shRPoWkxmLKZgk2j-F8d-399">
          <mxGeometry y="25" width="398" height="47" as="geometry" />
        </mxCell>
        <mxCell id="shRPoWkxmLKZgk2j-F8d-401" value="BIGINT" style="shape=partialRectangle;connectable=0;fillColor=none;top=0;left=0;bottom=0;right=0;align=left;spacingLeft=2;overflow=hidden;fontSize=13;labelBackgroundColor=none;rounded=1;strokeColor=#028090;fontColor=#E4FDE1;" vertex="1" parent="shRPoWkxmLKZgk2j-F8d-400">
          <mxGeometry width="48" height="47" as="geometry">
            <mxRectangle width="48" height="47" as="alternateBounds" />
          </mxGeometry>
        </mxCell>
        <mxCell id="shRPoWkxmLKZgk2j-F8d-402" value="id" style="shape=partialRectangle;connectable=0;fillColor=none;top=0;left=0;bottom=0;right=0;align=left;spacingLeft=2;overflow=hidden;fontSize=13;labelBackgroundColor=none;rounded=1;strokeColor=#028090;fontColor=#E4FDE1;" vertex="1" parent="shRPoWkxmLKZgk2j-F8d-400">
          <mxGeometry x="48" width="224" height="47" as="geometry">
            <mxRectangle width="224" height="47" as="alternateBounds" />
          </mxGeometry>
        </mxCell>
        <mxCell id="shRPoWkxmLKZgk2j-F8d-403" value="PK: Status history ID" style="shape=partialRectangle;connectable=0;fillColor=none;top=0;left=0;bottom=0;right=0;align=left;spacingLeft=2;overflow=hidden;fontSize=13;labelBackgroundColor=none;rounded=1;strokeColor=#028090;fontColor=#E4FDE1;" vertex="1" parent="shRPoWkxmLKZgk2j-F8d-400">
          <mxGeometry x="272" width="126" height="47" as="geometry">
            <mxRectangle width="126" height="47" as="alternateBounds" />
          </mxGeometry>
        </mxCell>
        <mxCell id="shRPoWkxmLKZgk2j-F8d-404" style="shape=tableRow;horizontal=0;startSize=0;swimlaneHead=0;swimlaneBody=0;fillColor=none;collapsible=0;dropTarget=0;points=[[0,0.5],[1,0.5]];portConstraint=eastwest;top=0;left=0;right=0;bottom=0;fontSize=13;labelBackgroundColor=none;rounded=1;strokeColor=#028090;fontColor=#E4FDE1;" vertex="1" parent="shRPoWkxmLKZgk2j-F8d-399">
          <mxGeometry y="72" width="398" height="47" as="geometry" />
        </mxCell>
        <mxCell id="shRPoWkxmLKZgk2j-F8d-405" value="BIGINT" style="shape=partialRectangle;connectable=0;fillColor=none;top=0;left=0;bottom=0;right=0;align=left;spacingLeft=2;overflow=hidden;fontSize=13;labelBackgroundColor=none;rounded=1;strokeColor=#028090;fontColor=#E4FDE1;" vertex="1" parent="shRPoWkxmLKZgk2j-F8d-404">
          <mxGeometry width="48" height="47" as="geometry">
            <mxRectangle width="48" height="47" as="alternateBounds" />
          </mxGeometry>
        </mxCell>
        <mxCell id="shRPoWkxmLKZgk2j-F8d-406" value="booking_id" style="shape=partialRectangle;connectable=0;fillColor=none;top=0;left=0;bottom=0;right=0;align=left;spacingLeft=2;overflow=hidden;fontSize=13;labelBackgroundColor=none;rounded=1;strokeColor=#028090;fontColor=#E4FDE1;" vertex="1" parent="shRPoWkxmLKZgk2j-F8d-404">
          <mxGeometry x="48" width="224" height="47" as="geometry">
            <mxRectangle width="224" height="47" as="alternateBounds" />
          </mxGeometry>
        </mxCell>
        <mxCell id="shRPoWkxmLKZgk2j-F8d-407" value="FK: PARCEL_BOOKING.id" style="shape=partialRectangle;connectable=0;fillColor=none;top=0;left=0;bottom=0;right=0;align=left;spacingLeft=2;overflow=hidden;fontSize=13;labelBackgroundColor=none;rounded=1;strokeColor=#028090;fontColor=#E4FDE1;" vertex="1" parent="shRPoWkxmLKZgk2j-F8d-404">
          <mxGeometry x="272" width="126" height="47" as="geometry">
            <mxRectangle width="126" height="47" as="alternateBounds" />
          </mxGeometry>
        </mxCell>
        <mxCell id="shRPoWkxmLKZgk2j-F8d-408" style="shape=tableRow;horizontal=0;startSize=0;swimlaneHead=0;swimlaneBody=0;fillColor=none;collapsible=0;dropTarget=0;points=[[0,0.5],[1,0.5]];portConstraint=eastwest;top=0;left=0;right=0;bottom=0;fontSize=13;labelBackgroundColor=none;rounded=1;strokeColor=#028090;fontColor=#E4FDE1;" vertex="1" parent="shRPoWkxmLKZgk2j-F8d-399">
          <mxGeometry y="119" width="398" height="47" as="geometry" />
        </mxCell>
        <mxCell id="shRPoWkxmLKZgk2j-F8d-409" value="VARCHAR" style="shape=partialRectangle;connectable=0;fillColor=none;top=0;left=0;bottom=0;right=0;align=left;spacingLeft=2;overflow=hidden;fontSize=13;labelBackgroundColor=none;rounded=1;strokeColor=#028090;fontColor=#E4FDE1;" vertex="1" parent="shRPoWkxmLKZgk2j-F8d-408">
          <mxGeometry width="48" height="47" as="geometry">
            <mxRectangle width="48" height="47" as="alternateBounds" />
          </mxGeometry>
        </mxCell>
        <mxCell id="shRPoWkxmLKZgk2j-F8d-410" value="new_status" style="shape=partialRectangle;connectable=0;fillColor=none;top=0;left=0;bottom=0;right=0;align=left;spacingLeft=2;overflow=hidden;fontSize=13;labelBackgroundColor=none;rounded=1;strokeColor=#028090;fontColor=#E4FDE1;" vertex="1" parent="shRPoWkxmLKZgk2j-F8d-408">
          <mxGeometry x="48" width="224" height="47" as="geometry">
            <mxRectangle width="224" height="47" as="alternateBounds" />
          </mxGeometry>
        </mxCell>
        <mxCell id="shRPoWkxmLKZgk2j-F8d-411" value="Status recorded" style="shape=partialRectangle;connectable=0;fillColor=none;top=0;left=0;bottom=0;right=0;align=left;spacingLeft=2;overflow=hidden;fontSize=13;labelBackgroundColor=none;rounded=1;strokeColor=#028090;fontColor=#E4FDE1;" vertex="1" parent="shRPoWkxmLKZgk2j-F8d-408">
          <mxGeometry x="272" width="126" height="47" as="geometry">
            <mxRectangle width="126" height="47" as="alternateBounds" />
          </mxGeometry>
        </mxCell>
        <mxCell id="shRPoWkxmLKZgk2j-F8d-412" style="shape=tableRow;horizontal=0;startSize=0;swimlaneHead=0;swimlaneBody=0;fillColor=none;collapsible=0;dropTarget=0;points=[[0,0.5],[1,0.5]];portConstraint=eastwest;top=0;left=0;right=0;bottom=0;fontSize=13;labelBackgroundColor=none;rounded=1;strokeColor=#028090;fontColor=#E4FDE1;" vertex="1" parent="shRPoWkxmLKZgk2j-F8d-399">
          <mxGeometry y="166" width="398" height="47" as="geometry" />
        </mxCell>
        <mxCell id="shRPoWkxmLKZgk2j-F8d-413" value="DATETIME" style="shape=partialRectangle;connectable=0;fillColor=none;top=0;left=0;bottom=0;right=0;align=left;spacingLeft=2;overflow=hidden;fontSize=13;labelBackgroundColor=none;rounded=1;strokeColor=#028090;fontColor=#E4FDE1;" vertex="1" parent="shRPoWkxmLKZgk2j-F8d-412">
          <mxGeometry width="48" height="47" as="geometry">
            <mxRectangle width="48" height="47" as="alternateBounds" />
          </mxGeometry>
        </mxCell>
        <mxCell id="shRPoWkxmLKZgk2j-F8d-414" value="timestamp" style="shape=partialRectangle;connectable=0;fillColor=none;top=0;left=0;bottom=0;right=0;align=left;spacingLeft=2;overflow=hidden;fontSize=13;labelBackgroundColor=none;rounded=1;strokeColor=#028090;fontColor=#E4FDE1;" vertex="1" parent="shRPoWkxmLKZgk2j-F8d-412">
          <mxGeometry x="48" width="224" height="47" as="geometry">
            <mxRectangle width="224" height="47" as="alternateBounds" />
          </mxGeometry>
        </mxCell>
        <mxCell id="shRPoWkxmLKZgk2j-F8d-415" value="When status updated" style="shape=partialRectangle;connectable=0;fillColor=none;top=0;left=0;bottom=0;right=0;align=left;spacingLeft=2;overflow=hidden;fontSize=13;labelBackgroundColor=none;rounded=1;strokeColor=#028090;fontColor=#E4FDE1;" vertex="1" parent="shRPoWkxmLKZgk2j-F8d-412">
          <mxGeometry x="272" width="126" height="47" as="geometry">
            <mxRectangle width="126" height="47" as="alternateBounds" />
          </mxGeometry>
        </mxCell>
        <mxCell id="shRPoWkxmLKZgk2j-F8d-416" value="CUSTOMER_PROFILE" style="shape=table;startSize=25;container=1;collapsible=0;childLayout=tableLayout;fixedRows=1;rowLines=1;fontStyle=1;align=center;resizeLast=1;fontSize=13;labelBackgroundColor=none;rounded=1;fillColor=#F45B69;strokeColor=#028090;fontColor=#E4FDE1;" vertex="1" parent="1">
          <mxGeometry x="739" y="1101" width="412" height="129" as="geometry" />
        </mxCell>
        <mxCell id="shRPoWkxmLKZgk2j-F8d-417" style="shape=tableRow;horizontal=0;startSize=0;swimlaneHead=0;swimlaneBody=0;fillColor=none;collapsible=0;dropTarget=0;points=[[0,0.5],[1,0.5]];portConstraint=eastwest;top=0;left=0;right=0;bottom=0;fontSize=13;labelBackgroundColor=none;rounded=1;strokeColor=#028090;fontColor=#E4FDE1;" vertex="1" parent="shRPoWkxmLKZgk2j-F8d-416">
          <mxGeometry y="25" width="412" height="52" as="geometry" />
        </mxCell>
        <mxCell id="shRPoWkxmLKZgk2j-F8d-418" value="BIGINT" style="shape=partialRectangle;connectable=0;fillColor=none;top=0;left=0;bottom=0;right=0;align=left;spacingLeft=2;overflow=hidden;fontSize=13;labelBackgroundColor=none;rounded=1;strokeColor=#028090;fontColor=#E4FDE1;" vertex="1" parent="shRPoWkxmLKZgk2j-F8d-417">
          <mxGeometry width="36" height="52" as="geometry">
            <mxRectangle width="36" height="52" as="alternateBounds" />
          </mxGeometry>
        </mxCell>
        <mxCell id="shRPoWkxmLKZgk2j-F8d-419" value="user_id" style="shape=partialRectangle;connectable=0;fillColor=none;top=0;left=0;bottom=0;right=0;align=left;spacingLeft=2;overflow=hidden;fontSize=13;labelBackgroundColor=none;rounded=1;strokeColor=#028090;fontColor=#E4FDE1;" vertex="1" parent="shRPoWkxmLKZgk2j-F8d-417">
          <mxGeometry x="36" width="232" height="52" as="geometry">
            <mxRectangle width="232" height="52" as="alternateBounds" />
          </mxGeometry>
        </mxCell>
        <mxCell id="shRPoWkxmLKZgk2j-F8d-420" value="PK, FK: Links to USER.id" style="shape=partialRectangle;connectable=0;fillColor=none;top=0;left=0;bottom=0;right=0;align=left;spacingLeft=2;overflow=hidden;fontSize=13;labelBackgroundColor=none;rounded=1;strokeColor=#028090;fontColor=#E4FDE1;" vertex="1" parent="shRPoWkxmLKZgk2j-F8d-417">
          <mxGeometry x="268" width="144" height="52" as="geometry">
            <mxRectangle width="144" height="52" as="alternateBounds" />
          </mxGeometry>
        </mxCell>
        <mxCell id="shRPoWkxmLKZgk2j-F8d-421" style="shape=tableRow;horizontal=0;startSize=0;swimlaneHead=0;swimlaneBody=0;fillColor=none;collapsible=0;dropTarget=0;points=[[0,0.5],[1,0.5]];portConstraint=eastwest;top=0;left=0;right=0;bottom=0;fontSize=13;labelBackgroundColor=none;rounded=1;strokeColor=#028090;fontColor=#E4FDE1;" vertex="1" parent="shRPoWkxmLKZgk2j-F8d-416">
          <mxGeometry y="77" width="412" height="52" as="geometry" />
        </mxCell>
        <mxCell id="shRPoWkxmLKZgk2j-F8d-422" value="TEXT" style="shape=partialRectangle;connectable=0;fillColor=none;top=0;left=0;bottom=0;right=0;align=left;spacingLeft=2;overflow=hidden;fontSize=13;labelBackgroundColor=none;rounded=1;strokeColor=#028090;fontColor=#E4FDE1;" vertex="1" parent="shRPoWkxmLKZgk2j-F8d-421">
          <mxGeometry width="36" height="52" as="geometry">
            <mxRectangle width="36" height="52" as="alternateBounds" />
          </mxGeometry>
        </mxCell>
        <mxCell id="shRPoWkxmLKZgk2j-F8d-423" value="current_address" style="shape=partialRectangle;connectable=0;fillColor=none;top=0;left=0;bottom=0;right=0;align=left;spacingLeft=2;overflow=hidden;fontSize=13;labelBackgroundColor=none;rounded=1;strokeColor=#028090;fontColor=#E4FDE1;" vertex="1" parent="shRPoWkxmLKZgk2j-F8d-421">
          <mxGeometry x="36" width="232" height="52" as="geometry">
            <mxRectangle width="232" height="52" as="alternateBounds" />
          </mxGeometry>
        </mxCell>
        <mxCell id="shRPoWkxmLKZgk2j-F8d-424" value="Customer address" style="shape=partialRectangle;connectable=0;fillColor=none;top=0;left=0;bottom=0;right=0;align=left;spacingLeft=2;overflow=hidden;fontSize=13;labelBackgroundColor=none;rounded=1;strokeColor=#028090;fontColor=#E4FDE1;" vertex="1" parent="shRPoWkxmLKZgk2j-F8d-421">
          <mxGeometry x="268" width="144" height="52" as="geometry">
            <mxRectangle width="144" height="52" as="alternateBounds" />
          </mxGeometry>
        </mxCell>
        <mxCell id="shRPoWkxmLKZgk2j-F8d-425" value="RIDER_PROFILE" style="shape=table;startSize=25;container=1;collapsible=0;childLayout=tableLayout;fixedRows=1;rowLines=1;fontStyle=1;align=center;resizeLast=1;fontSize=13;labelBackgroundColor=none;rounded=1;fillColor=#F45B69;strokeColor=#028090;fontColor=#E4FDE1;" vertex="1" parent="1">
          <mxGeometry x="1291" y="973" width="450" height="385" as="geometry" />
        </mxCell>
        <mxCell id="shRPoWkxmLKZgk2j-F8d-426" style="shape=tableRow;horizontal=0;startSize=0;swimlaneHead=0;swimlaneBody=0;fillColor=none;collapsible=0;dropTarget=0;points=[[0,0.5],[1,0.5]];portConstraint=eastwest;top=0;left=0;right=0;bottom=0;fontSize=13;labelBackgroundColor=none;rounded=1;strokeColor=#028090;fontColor=#E4FDE1;" vertex="1" parent="shRPoWkxmLKZgk2j-F8d-425">
          <mxGeometry y="25" width="450" height="45" as="geometry" />
        </mxCell>
        <mxCell id="shRPoWkxmLKZgk2j-F8d-427" value="BIGINT" style="shape=partialRectangle;connectable=0;fillColor=none;top=0;left=0;bottom=0;right=0;align=left;spacingLeft=2;overflow=hidden;fontSize=13;labelBackgroundColor=none;rounded=1;strokeColor=#028090;fontColor=#E4FDE1;" vertex="1" parent="shRPoWkxmLKZgk2j-F8d-426">
          <mxGeometry width="42" height="45" as="geometry">
            <mxRectangle width="42" height="45" as="alternateBounds" />
          </mxGeometry>
        </mxCell>
        <mxCell id="shRPoWkxmLKZgk2j-F8d-428" value="user_id" style="shape=partialRectangle;connectable=0;fillColor=none;top=0;left=0;bottom=0;right=0;align=left;spacingLeft=2;overflow=hidden;fontSize=13;labelBackgroundColor=none;rounded=1;strokeColor=#028090;fontColor=#E4FDE1;" vertex="1" parent="shRPoWkxmLKZgk2j-F8d-426">
          <mxGeometry x="42" width="264" height="45" as="geometry">
            <mxRectangle width="264" height="45" as="alternateBounds" />
          </mxGeometry>
        </mxCell>
        <mxCell id="shRPoWkxmLKZgk2j-F8d-429" value="PK, FK: Links to USER.id" style="shape=partialRectangle;connectable=0;fillColor=none;top=0;left=0;bottom=0;right=0;align=left;spacingLeft=2;overflow=hidden;fontSize=13;labelBackgroundColor=none;rounded=1;strokeColor=#028090;fontColor=#E4FDE1;" vertex="1" parent="shRPoWkxmLKZgk2j-F8d-426">
          <mxGeometry x="306" width="144" height="45" as="geometry">
            <mxRectangle width="144" height="45" as="alternateBounds" />
          </mxGeometry>
        </mxCell>
        <mxCell id="shRPoWkxmLKZgk2j-F8d-430" style="shape=tableRow;horizontal=0;startSize=0;swimlaneHead=0;swimlaneBody=0;fillColor=none;collapsible=0;dropTarget=0;points=[[0,0.5],[1,0.5]];portConstraint=eastwest;top=0;left=0;right=0;bottom=0;fontSize=13;labelBackgroundColor=none;rounded=1;strokeColor=#028090;fontColor=#E4FDE1;" vertex="1" parent="shRPoWkxmLKZgk2j-F8d-425">
          <mxGeometry y="70" width="450" height="45" as="geometry" />
        </mxCell>
        <mxCell id="shRPoWkxmLKZgk2j-F8d-431" value="VARCHAR" style="shape=partialRectangle;connectable=0;fillColor=none;top=0;left=0;bottom=0;right=0;align=left;spacingLeft=2;overflow=hidden;fontSize=13;labelBackgroundColor=none;rounded=1;strokeColor=#028090;fontColor=#E4FDE1;" vertex="1" parent="shRPoWkxmLKZgk2j-F8d-430">
          <mxGeometry width="42" height="45" as="geometry">
            <mxRectangle width="42" height="45" as="alternateBounds" />
          </mxGeometry>
        </mxCell>
        <mxCell id="shRPoWkxmLKZgk2j-F8d-432" value="vehicle_type" style="shape=partialRectangle;connectable=0;fillColor=none;top=0;left=0;bottom=0;right=0;align=left;spacingLeft=2;overflow=hidden;fontSize=13;labelBackgroundColor=none;rounded=1;strokeColor=#028090;fontColor=#E4FDE1;" vertex="1" parent="shRPoWkxmLKZgk2j-F8d-430">
          <mxGeometry x="42" width="264" height="45" as="geometry">
            <mxRectangle width="264" height="45" as="alternateBounds" />
          </mxGeometry>
        </mxCell>
        <mxCell id="shRPoWkxmLKZgk2j-F8d-433" value="Bike, Scooter, etc." style="shape=partialRectangle;connectable=0;fillColor=none;top=0;left=0;bottom=0;right=0;align=left;spacingLeft=2;overflow=hidden;fontSize=13;labelBackgroundColor=none;rounded=1;strokeColor=#028090;fontColor=#E4FDE1;" vertex="1" parent="shRPoWkxmLKZgk2j-F8d-430">
          <mxGeometry x="306" width="144" height="45" as="geometry">
            <mxRectangle width="144" height="45" as="alternateBounds" />
          </mxGeometry>
        </mxCell>
        <mxCell id="shRPoWkxmLKZgk2j-F8d-434" style="shape=tableRow;horizontal=0;startSize=0;swimlaneHead=0;swimlaneBody=0;fillColor=none;collapsible=0;dropTarget=0;points=[[0,0.5],[1,0.5]];portConstraint=eastwest;top=0;left=0;right=0;bottom=0;fontSize=13;labelBackgroundColor=none;rounded=1;strokeColor=#028090;fontColor=#E4FDE1;" vertex="1" parent="shRPoWkxmLKZgk2j-F8d-425">
          <mxGeometry y="115" width="450" height="45" as="geometry" />
        </mxCell>
        <mxCell id="shRPoWkxmLKZgk2j-F8d-435" value="VARCHAR" style="shape=partialRectangle;connectable=0;fillColor=none;top=0;left=0;bottom=0;right=0;align=left;spacingLeft=2;overflow=hidden;fontSize=13;labelBackgroundColor=none;rounded=1;strokeColor=#028090;fontColor=#E4FDE1;" vertex="1" parent="shRPoWkxmLKZgk2j-F8d-434">
          <mxGeometry width="42" height="45" as="geometry">
            <mxRectangle width="42" height="45" as="alternateBounds" />
          </mxGeometry>
        </mxCell>
        <mxCell id="shRPoWkxmLKZgk2j-F8d-436" value="vehicle_number" style="shape=partialRectangle;connectable=0;fillColor=none;top=0;left=0;bottom=0;right=0;align=left;spacingLeft=2;overflow=hidden;fontSize=13;labelBackgroundColor=none;rounded=1;strokeColor=#028090;fontColor=#E4FDE1;" vertex="1" parent="shRPoWkxmLKZgk2j-F8d-434">
          <mxGeometry x="42" width="264" height="45" as="geometry">
            <mxRectangle width="264" height="45" as="alternateBounds" />
          </mxGeometry>
        </mxCell>
        <mxCell id="shRPoWkxmLKZgk2j-F8d-437" value="Vehicle plate" style="shape=partialRectangle;connectable=0;fillColor=none;top=0;left=0;bottom=0;right=0;align=left;spacingLeft=2;overflow=hidden;fontSize=13;labelBackgroundColor=none;rounded=1;strokeColor=#028090;fontColor=#E4FDE1;" vertex="1" parent="shRPoWkxmLKZgk2j-F8d-434">
          <mxGeometry x="306" width="144" height="45" as="geometry">
            <mxRectangle width="144" height="45" as="alternateBounds" />
          </mxGeometry>
        </mxCell>
        <mxCell id="shRPoWkxmLKZgk2j-F8d-438" style="shape=tableRow;horizontal=0;startSize=0;swimlaneHead=0;swimlaneBody=0;fillColor=none;collapsible=0;dropTarget=0;points=[[0,0.5],[1,0.5]];portConstraint=eastwest;top=0;left=0;right=0;bottom=0;fontSize=13;labelBackgroundColor=none;rounded=1;strokeColor=#028090;fontColor=#E4FDE1;" vertex="1" parent="shRPoWkxmLKZgk2j-F8d-425">
          <mxGeometry y="160" width="450" height="45" as="geometry" />
        </mxCell>
        <mxCell id="shRPoWkxmLKZgk2j-F8d-439" value="VARCHAR" style="shape=partialRectangle;connectable=0;fillColor=none;top=0;left=0;bottom=0;right=0;align=left;spacingLeft=2;overflow=hidden;fontSize=13;labelBackgroundColor=none;rounded=1;strokeColor=#028090;fontColor=#E4FDE1;" vertex="1" parent="shRPoWkxmLKZgk2j-F8d-438">
          <mxGeometry width="42" height="45" as="geometry">
            <mxRectangle width="42" height="45" as="alternateBounds" />
          </mxGeometry>
        </mxCell>
        <mxCell id="shRPoWkxmLKZgk2j-F8d-440" value="aadhaar_number" style="shape=partialRectangle;connectable=0;fillColor=none;top=0;left=0;bottom=0;right=0;align=left;spacingLeft=2;overflow=hidden;fontSize=13;labelBackgroundColor=none;rounded=1;strokeColor=#028090;fontColor=#E4FDE1;" vertex="1" parent="shRPoWkxmLKZgk2j-F8d-438">
          <mxGeometry x="42" width="264" height="45" as="geometry">
            <mxRectangle width="264" height="45" as="alternateBounds" />
          </mxGeometry>
        </mxCell>
        <mxCell id="shRPoWkxmLKZgk2j-F8d-441" value="Unique KYC ID" style="shape=partialRectangle;connectable=0;fillColor=none;top=0;left=0;bottom=0;right=0;align=left;spacingLeft=2;overflow=hidden;fontSize=13;labelBackgroundColor=none;rounded=1;strokeColor=#028090;fontColor=#E4FDE1;" vertex="1" parent="shRPoWkxmLKZgk2j-F8d-438">
          <mxGeometry x="306" width="144" height="45" as="geometry">
            <mxRectangle width="144" height="45" as="alternateBounds" />
          </mxGeometry>
        </mxCell>
        <mxCell id="shRPoWkxmLKZgk2j-F8d-442" style="shape=tableRow;horizontal=0;startSize=0;swimlaneHead=0;swimlaneBody=0;fillColor=none;collapsible=0;dropTarget=0;points=[[0,0.5],[1,0.5]];portConstraint=eastwest;top=0;left=0;right=0;bottom=0;fontSize=13;labelBackgroundColor=none;rounded=1;strokeColor=#028090;fontColor=#E4FDE1;" vertex="1" parent="shRPoWkxmLKZgk2j-F8d-425">
          <mxGeometry y="205" width="450" height="45" as="geometry" />
        </mxCell>
        <mxCell id="shRPoWkxmLKZgk2j-F8d-443" value="VARCHAR" style="shape=partialRectangle;connectable=0;fillColor=none;top=0;left=0;bottom=0;right=0;align=left;spacingLeft=2;overflow=hidden;fontSize=13;labelBackgroundColor=none;rounded=1;strokeColor=#028090;fontColor=#E4FDE1;" vertex="1" parent="shRPoWkxmLKZgk2j-F8d-442">
          <mxGeometry width="42" height="45" as="geometry">
            <mxRectangle width="42" height="45" as="alternateBounds" />
          </mxGeometry>
        </mxCell>
        <mxCell id="shRPoWkxmLKZgk2j-F8d-444" value="license_number" style="shape=partialRectangle;connectable=0;fillColor=none;top=0;left=0;bottom=0;right=0;align=left;spacingLeft=2;overflow=hidden;fontSize=13;labelBackgroundColor=none;rounded=1;strokeColor=#028090;fontColor=#E4FDE1;" vertex="1" parent="shRPoWkxmLKZgk2j-F8d-442">
          <mxGeometry x="42" width="264" height="45" as="geometry">
            <mxRectangle width="264" height="45" as="alternateBounds" />
          </mxGeometry>
        </mxCell>
        <mxCell id="shRPoWkxmLKZgk2j-F8d-445" value="Unique license ID" style="shape=partialRectangle;connectable=0;fillColor=none;top=0;left=0;bottom=0;right=0;align=left;spacingLeft=2;overflow=hidden;fontSize=13;labelBackgroundColor=none;rounded=1;strokeColor=#028090;fontColor=#E4FDE1;" vertex="1" parent="shRPoWkxmLKZgk2j-F8d-442">
          <mxGeometry x="306" width="144" height="45" as="geometry">
            <mxRectangle width="144" height="45" as="alternateBounds" />
          </mxGeometry>
        </mxCell>
        <mxCell id="shRPoWkxmLKZgk2j-F8d-446" style="shape=tableRow;horizontal=0;startSize=0;swimlaneHead=0;swimlaneBody=0;fillColor=none;collapsible=0;dropTarget=0;points=[[0,0.5],[1,0.5]];portConstraint=eastwest;top=0;left=0;right=0;bottom=0;fontSize=13;labelBackgroundColor=none;rounded=1;strokeColor=#028090;fontColor=#E4FDE1;" vertex="1" parent="shRPoWkxmLKZgk2j-F8d-425">
          <mxGeometry y="250" width="450" height="45" as="geometry" />
        </mxCell>
        <mxCell id="shRPoWkxmLKZgk2j-F8d-447" value="BOOLEAN" style="shape=partialRectangle;connectable=0;fillColor=none;top=0;left=0;bottom=0;right=0;align=left;spacingLeft=2;overflow=hidden;fontSize=13;labelBackgroundColor=none;rounded=1;strokeColor=#028090;fontColor=#E4FDE1;" vertex="1" parent="shRPoWkxmLKZgk2j-F8d-446">
          <mxGeometry width="42" height="45" as="geometry">
            <mxRectangle width="42" height="45" as="alternateBounds" />
          </mxGeometry>
        </mxCell>
        <mxCell id="shRPoWkxmLKZgk2j-F8d-448" value="is_verified" style="shape=partialRectangle;connectable=0;fillColor=none;top=0;left=0;bottom=0;right=0;align=left;spacingLeft=2;overflow=hidden;fontSize=13;labelBackgroundColor=none;rounded=1;strokeColor=#028090;fontColor=#E4FDE1;" vertex="1" parent="shRPoWkxmLKZgk2j-F8d-446">
          <mxGeometry x="42" width="264" height="45" as="geometry">
            <mxRectangle width="264" height="45" as="alternateBounds" />
          </mxGeometry>
        </mxCell>
        <mxCell id="shRPoWkxmLKZgk2j-F8d-449" value="Admin verification" style="shape=partialRectangle;connectable=0;fillColor=none;top=0;left=0;bottom=0;right=0;align=left;spacingLeft=2;overflow=hidden;fontSize=13;labelBackgroundColor=none;rounded=1;strokeColor=#028090;fontColor=#E4FDE1;" vertex="1" parent="shRPoWkxmLKZgk2j-F8d-446">
          <mxGeometry x="306" width="144" height="45" as="geometry">
            <mxRectangle width="144" height="45" as="alternateBounds" />
          </mxGeometry>
        </mxCell>
        <mxCell id="shRPoWkxmLKZgk2j-F8d-450" style="shape=tableRow;horizontal=0;startSize=0;swimlaneHead=0;swimlaneBody=0;fillColor=none;collapsible=0;dropTarget=0;points=[[0,0.5],[1,0.5]];portConstraint=eastwest;top=0;left=0;right=0;bottom=0;fontSize=13;labelBackgroundColor=none;rounded=1;strokeColor=#028090;fontColor=#E4FDE1;" vertex="1" parent="shRPoWkxmLKZgk2j-F8d-425">
          <mxGeometry y="295" width="450" height="45" as="geometry" />
        </mxCell>
        <mxCell id="shRPoWkxmLKZgk2j-F8d-451" value="VARCHAR" style="shape=partialRectangle;connectable=0;fillColor=none;top=0;left=0;bottom=0;right=0;align=left;spacingLeft=2;overflow=hidden;fontSize=13;labelBackgroundColor=none;rounded=1;strokeColor=#028090;fontColor=#E4FDE1;" vertex="1" parent="shRPoWkxmLKZgk2j-F8d-450">
          <mxGeometry width="42" height="45" as="geometry">
            <mxRectangle width="42" height="45" as="alternateBounds" />
          </mxGeometry>
        </mxCell>
        <mxCell id="shRPoWkxmLKZgk2j-F8d-452" value="license_photo_url" style="shape=partialRectangle;connectable=0;fillColor=none;top=0;left=0;bottom=0;right=0;align=left;spacingLeft=2;overflow=hidden;fontSize=13;labelBackgroundColor=none;rounded=1;strokeColor=#028090;fontColor=#E4FDE1;" vertex="1" parent="shRPoWkxmLKZgk2j-F8d-450">
          <mxGeometry x="42" width="264" height="45" as="geometry">
            <mxRectangle width="264" height="45" as="alternateBounds" />
          </mxGeometry>
        </mxCell>
        <mxCell id="shRPoWkxmLKZgk2j-F8d-453" value="URL for license image" style="shape=partialRectangle;connectable=0;fillColor=none;top=0;left=0;bottom=0;right=0;align=left;spacingLeft=2;overflow=hidden;fontSize=13;labelBackgroundColor=none;rounded=1;strokeColor=#028090;fontColor=#E4FDE1;" vertex="1" parent="shRPoWkxmLKZgk2j-F8d-450">
          <mxGeometry x="306" width="144" height="45" as="geometry">
            <mxRectangle width="144" height="45" as="alternateBounds" />
          </mxGeometry>
        </mxCell>
        <mxCell id="shRPoWkxmLKZgk2j-F8d-454" style="shape=tableRow;horizontal=0;startSize=0;swimlaneHead=0;swimlaneBody=0;fillColor=none;collapsible=0;dropTarget=0;points=[[0,0.5],[1,0.5]];portConstraint=eastwest;top=0;left=0;right=0;bottom=0;fontSize=13;labelBackgroundColor=none;rounded=1;strokeColor=#028090;fontColor=#E4FDE1;" vertex="1" parent="shRPoWkxmLKZgk2j-F8d-425">
          <mxGeometry y="340" width="450" height="45" as="geometry" />
        </mxCell>
        <mxCell id="shRPoWkxmLKZgk2j-F8d-455" value="VARCHAR" style="shape=partialRectangle;connectable=0;fillColor=none;top=0;left=0;bottom=0;right=0;align=left;spacingLeft=2;overflow=hidden;fontSize=13;labelBackgroundColor=none;rounded=1;strokeColor=#028090;fontColor=#E4FDE1;" vertex="1" parent="shRPoWkxmLKZgk2j-F8d-454">
          <mxGeometry width="42" height="45" as="geometry">
            <mxRectangle width="42" height="45" as="alternateBounds" />
          </mxGeometry>
        </mxCell>
        <mxCell id="shRPoWkxmLKZgk2j-F8d-456" value="aadhaar_photo_url" style="shape=partialRectangle;connectable=0;fillColor=none;top=0;left=0;bottom=0;right=0;align=left;spacingLeft=2;overflow=hidden;fontSize=13;labelBackgroundColor=none;rounded=1;strokeColor=#028090;fontColor=#E4FDE1;" vertex="1" parent="shRPoWkxmLKZgk2j-F8d-454">
          <mxGeometry x="42" width="264" height="45" as="geometry">
            <mxRectangle width="264" height="45" as="alternateBounds" />
          </mxGeometry>
        </mxCell>
        <mxCell id="shRPoWkxmLKZgk2j-F8d-457" value="URL for Aadhaar image" style="shape=partialRectangle;connectable=0;fillColor=none;top=0;left=0;bottom=0;right=0;align=left;spacingLeft=2;overflow=hidden;fontSize=13;labelBackgroundColor=none;rounded=1;strokeColor=#028090;fontColor=#E4FDE1;" vertex="1" parent="shRPoWkxmLKZgk2j-F8d-454">
          <mxGeometry x="306" width="144" height="45" as="geometry">
            <mxRectangle width="144" height="45" as="alternateBounds" />
          </mxGeometry>
        </mxCell>
        <mxCell id="shRPoWkxmLKZgk2j-F8d-458" value="RIDER_LOCATION" style="shape=table;startSize=25;container=1;collapsible=0;childLayout=tableLayout;fixedRows=1;rowLines=1;fontStyle=1;align=center;resizeLast=1;fontSize=13;labelBackgroundColor=none;rounded=1;fillColor=#F45B69;strokeColor=#028090;fontColor=#E4FDE1;" vertex="1" parent="1">
          <mxGeometry x="1881" y="1058" width="410" height="214" as="geometry" />
        </mxCell>
        <mxCell id="shRPoWkxmLKZgk2j-F8d-459" style="shape=tableRow;horizontal=0;startSize=0;swimlaneHead=0;swimlaneBody=0;fillColor=none;collapsible=0;dropTarget=0;points=[[0,0.5],[1,0.5]];portConstraint=eastwest;top=0;left=0;right=0;bottom=0;fontSize=13;labelBackgroundColor=none;rounded=1;strokeColor=#028090;fontColor=#E4FDE1;" vertex="1" parent="shRPoWkxmLKZgk2j-F8d-458">
          <mxGeometry y="25" width="410" height="47" as="geometry" />
        </mxCell>
        <mxCell id="shRPoWkxmLKZgk2j-F8d-460" value="BIGINT" style="shape=partialRectangle;connectable=0;fillColor=none;top=0;left=0;bottom=0;right=0;align=left;spacingLeft=2;overflow=hidden;fontSize=13;labelBackgroundColor=none;rounded=1;strokeColor=#028090;fontColor=#E4FDE1;" vertex="1" parent="shRPoWkxmLKZgk2j-F8d-459">
          <mxGeometry width="48" height="47" as="geometry">
            <mxRectangle width="48" height="47" as="alternateBounds" />
          </mxGeometry>
        </mxCell>
        <mxCell id="shRPoWkxmLKZgk2j-F8d-461" value="rider_id" style="shape=partialRectangle;connectable=0;fillColor=none;top=0;left=0;bottom=0;right=0;align=left;spacingLeft=2;overflow=hidden;fontSize=13;labelBackgroundColor=none;rounded=1;strokeColor=#028090;fontColor=#E4FDE1;" vertex="1" parent="shRPoWkxmLKZgk2j-F8d-459">
          <mxGeometry x="48" width="218" height="47" as="geometry">
            <mxRectangle width="218" height="47" as="alternateBounds" />
          </mxGeometry>
        </mxCell>
        <mxCell id="shRPoWkxmLKZgk2j-F8d-462" value="PK, FK: Links to USER.id" style="shape=partialRectangle;connectable=0;fillColor=none;top=0;left=0;bottom=0;right=0;align=left;spacingLeft=2;overflow=hidden;fontSize=13;labelBackgroundColor=none;rounded=1;strokeColor=#028090;fontColor=#E4FDE1;" vertex="1" parent="shRPoWkxmLKZgk2j-F8d-459">
          <mxGeometry x="266" width="144" height="47" as="geometry">
            <mxRectangle width="144" height="47" as="alternateBounds" />
          </mxGeometry>
        </mxCell>
        <mxCell id="shRPoWkxmLKZgk2j-F8d-463" style="shape=tableRow;horizontal=0;startSize=0;swimlaneHead=0;swimlaneBody=0;fillColor=none;collapsible=0;dropTarget=0;points=[[0,0.5],[1,0.5]];portConstraint=eastwest;top=0;left=0;right=0;bottom=0;fontSize=13;labelBackgroundColor=none;rounded=1;strokeColor=#028090;fontColor=#E4FDE1;" vertex="1" parent="shRPoWkxmLKZgk2j-F8d-458">
          <mxGeometry y="72" width="410" height="47" as="geometry" />
        </mxCell>
        <mxCell id="shRPoWkxmLKZgk2j-F8d-464" value="DECIMAL" style="shape=partialRectangle;connectable=0;fillColor=none;top=0;left=0;bottom=0;right=0;align=left;spacingLeft=2;overflow=hidden;fontSize=13;labelBackgroundColor=none;rounded=1;strokeColor=#028090;fontColor=#E4FDE1;" vertex="1" parent="shRPoWkxmLKZgk2j-F8d-463">
          <mxGeometry width="48" height="47" as="geometry">
            <mxRectangle width="48" height="47" as="alternateBounds" />
          </mxGeometry>
        </mxCell>
        <mxCell id="shRPoWkxmLKZgk2j-F8d-465" value="latitude" style="shape=partialRectangle;connectable=0;fillColor=none;top=0;left=0;bottom=0;right=0;align=left;spacingLeft=2;overflow=hidden;fontSize=13;labelBackgroundColor=none;rounded=1;strokeColor=#028090;fontColor=#E4FDE1;" vertex="1" parent="shRPoWkxmLKZgk2j-F8d-463">
          <mxGeometry x="48" width="218" height="47" as="geometry">
            <mxRectangle width="218" height="47" as="alternateBounds" />
          </mxGeometry>
        </mxCell>
        <mxCell id="shRPoWkxmLKZgk2j-F8d-466" value="Current latitude" style="shape=partialRectangle;connectable=0;fillColor=none;top=0;left=0;bottom=0;right=0;align=left;spacingLeft=2;overflow=hidden;fontSize=13;labelBackgroundColor=none;rounded=1;strokeColor=#028090;fontColor=#E4FDE1;" vertex="1" parent="shRPoWkxmLKZgk2j-F8d-463">
          <mxGeometry x="266" width="144" height="47" as="geometry">
            <mxRectangle width="144" height="47" as="alternateBounds" />
          </mxGeometry>
        </mxCell>
        <mxCell id="shRPoWkxmLKZgk2j-F8d-467" style="shape=tableRow;horizontal=0;startSize=0;swimlaneHead=0;swimlaneBody=0;fillColor=none;collapsible=0;dropTarget=0;points=[[0,0.5],[1,0.5]];portConstraint=eastwest;top=0;left=0;right=0;bottom=0;fontSize=13;labelBackgroundColor=none;rounded=1;strokeColor=#028090;fontColor=#E4FDE1;" vertex="1" parent="shRPoWkxmLKZgk2j-F8d-458">
          <mxGeometry y="119" width="410" height="47" as="geometry" />
        </mxCell>
        <mxCell id="shRPoWkxmLKZgk2j-F8d-468" value="DECIMAL" style="shape=partialRectangle;connectable=0;fillColor=none;top=0;left=0;bottom=0;right=0;align=left;spacingLeft=2;overflow=hidden;fontSize=13;labelBackgroundColor=none;rounded=1;strokeColor=#028090;fontColor=#E4FDE1;" vertex="1" parent="shRPoWkxmLKZgk2j-F8d-467">
          <mxGeometry width="48" height="47" as="geometry">
            <mxRectangle width="48" height="47" as="alternateBounds" />
          </mxGeometry>
        </mxCell>
        <mxCell id="shRPoWkxmLKZgk2j-F8d-469" value="longitude" style="shape=partialRectangle;connectable=0;fillColor=none;top=0;left=0;bottom=0;right=0;align=left;spacingLeft=2;overflow=hidden;fontSize=13;labelBackgroundColor=none;rounded=1;strokeColor=#028090;fontColor=#E4FDE1;" vertex="1" parent="shRPoWkxmLKZgk2j-F8d-467">
          <mxGeometry x="48" width="218" height="47" as="geometry">
            <mxRectangle width="218" height="47" as="alternateBounds" />
          </mxGeometry>
        </mxCell>
        <mxCell id="shRPoWkxmLKZgk2j-F8d-470" value="Current longitude" style="shape=partialRectangle;connectable=0;fillColor=none;top=0;left=0;bottom=0;right=0;align=left;spacingLeft=2;overflow=hidden;fontSize=13;labelBackgroundColor=none;rounded=1;strokeColor=#028090;fontColor=#E4FDE1;" vertex="1" parent="shRPoWkxmLKZgk2j-F8d-467">
          <mxGeometry x="266" width="144" height="47" as="geometry">
            <mxRectangle width="144" height="47" as="alternateBounds" />
          </mxGeometry>
        </mxCell>
        <mxCell id="shRPoWkxmLKZgk2j-F8d-471" style="shape=tableRow;horizontal=0;startSize=0;swimlaneHead=0;swimlaneBody=0;fillColor=none;collapsible=0;dropTarget=0;points=[[0,0.5],[1,0.5]];portConstraint=eastwest;top=0;left=0;right=0;bottom=0;fontSize=13;labelBackgroundColor=none;rounded=1;strokeColor=#028090;fontColor=#E4FDE1;" vertex="1" parent="shRPoWkxmLKZgk2j-F8d-458">
          <mxGeometry y="166" width="410" height="47" as="geometry" />
        </mxCell>
        <mxCell id="shRPoWkxmLKZgk2j-F8d-472" value="DATETIME" style="shape=partialRectangle;connectable=0;fillColor=none;top=0;left=0;bottom=0;right=0;align=left;spacingLeft=2;overflow=hidden;fontSize=13;labelBackgroundColor=none;rounded=1;strokeColor=#028090;fontColor=#E4FDE1;" vertex="1" parent="shRPoWkxmLKZgk2j-F8d-471">
          <mxGeometry width="48" height="47" as="geometry">
            <mxRectangle width="48" height="47" as="alternateBounds" />
          </mxGeometry>
        </mxCell>
        <mxCell id="shRPoWkxmLKZgk2j-F8d-473" value="last_updated" style="shape=partialRectangle;connectable=0;fillColor=none;top=0;left=0;bottom=0;right=0;align=left;spacingLeft=2;overflow=hidden;fontSize=13;labelBackgroundColor=none;rounded=1;strokeColor=#028090;fontColor=#E4FDE1;" vertex="1" parent="shRPoWkxmLKZgk2j-F8d-471">
          <mxGeometry x="48" width="218" height="47" as="geometry">
            <mxRectangle width="218" height="47" as="alternateBounds" />
          </mxGeometry>
        </mxCell>
        <mxCell id="shRPoWkxmLKZgk2j-F8d-474" value="Last location update" style="shape=partialRectangle;connectable=0;fillColor=none;top=0;left=0;bottom=0;right=0;align=left;spacingLeft=2;overflow=hidden;fontSize=13;labelBackgroundColor=none;rounded=1;strokeColor=#028090;fontColor=#E4FDE1;" vertex="1" parent="shRPoWkxmLKZgk2j-F8d-471">
          <mxGeometry x="266" width="144" height="47" as="geometry">
            <mxRectangle width="144" height="47" as="alternateBounds" />
          </mxGeometry>
        </mxCell>
        <mxCell id="shRPoWkxmLKZgk2j-F8d-475" value="RIDER_AVAILABILITY" style="shape=table;startSize=25;container=1;collapsible=0;childLayout=tableLayout;fixedRows=1;rowLines=1;fontStyle=1;align=center;resizeLast=1;fontSize=13;labelBackgroundColor=none;rounded=1;fillColor=#F45B69;strokeColor=#028090;fontColor=#E4FDE1;" vertex="1" parent="1">
          <mxGeometry x="2432" y="1058" width="502" height="214" as="geometry" />
        </mxCell>
        <mxCell id="shRPoWkxmLKZgk2j-F8d-476" style="shape=tableRow;horizontal=0;startSize=0;swimlaneHead=0;swimlaneBody=0;fillColor=none;collapsible=0;dropTarget=0;points=[[0,0.5],[1,0.5]];portConstraint=eastwest;top=0;left=0;right=0;bottom=0;fontSize=13;labelBackgroundColor=none;rounded=1;strokeColor=#028090;fontColor=#E4FDE1;" vertex="1" parent="shRPoWkxmLKZgk2j-F8d-475">
          <mxGeometry y="25" width="502" height="47" as="geometry" />
        </mxCell>
        <mxCell id="shRPoWkxmLKZgk2j-F8d-477" value="BIGINT" style="shape=partialRectangle;connectable=0;fillColor=none;top=0;left=0;bottom=0;right=0;align=left;spacingLeft=2;overflow=hidden;fontSize=13;labelBackgroundColor=none;rounded=1;strokeColor=#028090;fontColor=#E4FDE1;" vertex="1" parent="shRPoWkxmLKZgk2j-F8d-476">
          <mxGeometry width="48" height="47" as="geometry">
            <mxRectangle width="48" height="47" as="alternateBounds" />
          </mxGeometry>
        </mxCell>
        <mxCell id="shRPoWkxmLKZgk2j-F8d-478" value="id" style="shape=partialRectangle;connectable=0;fillColor=none;top=0;left=0;bottom=0;right=0;align=left;spacingLeft=2;overflow=hidden;fontSize=13;labelBackgroundColor=none;rounded=1;strokeColor=#028090;fontColor=#E4FDE1;" vertex="1" parent="shRPoWkxmLKZgk2j-F8d-476">
          <mxGeometry x="48" width="274" height="47" as="geometry">
            <mxRectangle width="274" height="47" as="alternateBounds" />
          </mxGeometry>
        </mxCell>
        <mxCell id="shRPoWkxmLKZgk2j-F8d-479" value="PK: Unique availability record" style="shape=partialRectangle;connectable=0;fillColor=none;top=0;left=0;bottom=0;right=0;align=left;spacingLeft=2;overflow=hidden;fontSize=13;labelBackgroundColor=none;rounded=1;strokeColor=#028090;fontColor=#E4FDE1;" vertex="1" parent="shRPoWkxmLKZgk2j-F8d-476">
          <mxGeometry x="322" width="180" height="47" as="geometry">
            <mxRectangle width="180" height="47" as="alternateBounds" />
          </mxGeometry>
        </mxCell>
        <mxCell id="shRPoWkxmLKZgk2j-F8d-480" style="shape=tableRow;horizontal=0;startSize=0;swimlaneHead=0;swimlaneBody=0;fillColor=none;collapsible=0;dropTarget=0;points=[[0,0.5],[1,0.5]];portConstraint=eastwest;top=0;left=0;right=0;bottom=0;fontSize=13;labelBackgroundColor=none;rounded=1;strokeColor=#028090;fontColor=#E4FDE1;" vertex="1" parent="shRPoWkxmLKZgk2j-F8d-475">
          <mxGeometry y="72" width="502" height="47" as="geometry" />
        </mxCell>
        <mxCell id="shRPoWkxmLKZgk2j-F8d-481" value="BIGINT" style="shape=partialRectangle;connectable=0;fillColor=none;top=0;left=0;bottom=0;right=0;align=left;spacingLeft=2;overflow=hidden;fontSize=13;labelBackgroundColor=none;rounded=1;strokeColor=#028090;fontColor=#E4FDE1;" vertex="1" parent="shRPoWkxmLKZgk2j-F8d-480">
          <mxGeometry width="48" height="47" as="geometry">
            <mxRectangle width="48" height="47" as="alternateBounds" />
          </mxGeometry>
        </mxCell>
        <mxCell id="shRPoWkxmLKZgk2j-F8d-482" value="rider_id" style="shape=partialRectangle;connectable=0;fillColor=none;top=0;left=0;bottom=0;right=0;align=left;spacingLeft=2;overflow=hidden;fontSize=13;labelBackgroundColor=none;rounded=1;strokeColor=#028090;fontColor=#E4FDE1;" vertex="1" parent="shRPoWkxmLKZgk2j-F8d-480">
          <mxGeometry x="48" width="274" height="47" as="geometry">
            <mxRectangle width="274" height="47" as="alternateBounds" />
          </mxGeometry>
        </mxCell>
        <mxCell id="shRPoWkxmLKZgk2j-F8d-483" value="FK: Links to USER.id" style="shape=partialRectangle;connectable=0;fillColor=none;top=0;left=0;bottom=0;right=0;align=left;spacingLeft=2;overflow=hidden;fontSize=13;labelBackgroundColor=none;rounded=1;strokeColor=#028090;fontColor=#E4FDE1;" vertex="1" parent="shRPoWkxmLKZgk2j-F8d-480">
          <mxGeometry x="322" width="180" height="47" as="geometry">
            <mxRectangle width="180" height="47" as="alternateBounds" />
          </mxGeometry>
        </mxCell>
        <mxCell id="shRPoWkxmLKZgk2j-F8d-484" style="shape=tableRow;horizontal=0;startSize=0;swimlaneHead=0;swimlaneBody=0;fillColor=none;collapsible=0;dropTarget=0;points=[[0,0.5],[1,0.5]];portConstraint=eastwest;top=0;left=0;right=0;bottom=0;fontSize=13;labelBackgroundColor=none;rounded=1;strokeColor=#028090;fontColor=#E4FDE1;" vertex="1" parent="shRPoWkxmLKZgk2j-F8d-475">
          <mxGeometry y="119" width="502" height="47" as="geometry" />
        </mxCell>
        <mxCell id="shRPoWkxmLKZgk2j-F8d-485" value="BOOLEAN" style="shape=partialRectangle;connectable=0;fillColor=none;top=0;left=0;bottom=0;right=0;align=left;spacingLeft=2;overflow=hidden;fontSize=13;labelBackgroundColor=none;rounded=1;strokeColor=#028090;fontColor=#E4FDE1;" vertex="1" parent="shRPoWkxmLKZgk2j-F8d-484">
          <mxGeometry width="48" height="47" as="geometry">
            <mxRectangle width="48" height="47" as="alternateBounds" />
          </mxGeometry>
        </mxCell>
        <mxCell id="shRPoWkxmLKZgk2j-F8d-486" value="is_available" style="shape=partialRectangle;connectable=0;fillColor=none;top=0;left=0;bottom=0;right=0;align=left;spacingLeft=2;overflow=hidden;fontSize=13;labelBackgroundColor=none;rounded=1;strokeColor=#028090;fontColor=#E4FDE1;" vertex="1" parent="shRPoWkxmLKZgk2j-F8d-484">
          <mxGeometry x="48" width="274" height="47" as="geometry">
            <mxRectangle width="274" height="47" as="alternateBounds" />
          </mxGeometry>
        </mxCell>
        <mxCell id="shRPoWkxmLKZgk2j-F8d-487" value="ON/OFF duty" style="shape=partialRectangle;connectable=0;fillColor=none;top=0;left=0;bottom=0;right=0;align=left;spacingLeft=2;overflow=hidden;fontSize=13;labelBackgroundColor=none;rounded=1;strokeColor=#028090;fontColor=#E4FDE1;" vertex="1" parent="shRPoWkxmLKZgk2j-F8d-484">
          <mxGeometry x="322" width="180" height="47" as="geometry">
            <mxRectangle width="180" height="47" as="alternateBounds" />
          </mxGeometry>
        </mxCell>
        <mxCell id="shRPoWkxmLKZgk2j-F8d-488" style="shape=tableRow;horizontal=0;startSize=0;swimlaneHead=0;swimlaneBody=0;fillColor=none;collapsible=0;dropTarget=0;points=[[0,0.5],[1,0.5]];portConstraint=eastwest;top=0;left=0;right=0;bottom=0;fontSize=13;labelBackgroundColor=none;rounded=1;strokeColor=#028090;fontColor=#E4FDE1;" vertex="1" parent="shRPoWkxmLKZgk2j-F8d-475">
          <mxGeometry y="166" width="502" height="47" as="geometry" />
        </mxCell>
        <mxCell id="shRPoWkxmLKZgk2j-F8d-489" value="DATETIME" style="shape=partialRectangle;connectable=0;fillColor=none;top=0;left=0;bottom=0;right=0;align=left;spacingLeft=2;overflow=hidden;fontSize=13;labelBackgroundColor=none;rounded=1;strokeColor=#028090;fontColor=#E4FDE1;" vertex="1" parent="shRPoWkxmLKZgk2j-F8d-488">
          <mxGeometry width="48" height="47" as="geometry">
            <mxRectangle width="48" height="47" as="alternateBounds" />
          </mxGeometry>
        </mxCell>
        <mxCell id="shRPoWkxmLKZgk2j-F8d-490" value="status_change_time" style="shape=partialRectangle;connectable=0;fillColor=none;top=0;left=0;bottom=0;right=0;align=left;spacingLeft=2;overflow=hidden;fontSize=13;labelBackgroundColor=none;rounded=1;strokeColor=#028090;fontColor=#E4FDE1;" vertex="1" parent="shRPoWkxmLKZgk2j-F8d-488">
          <mxGeometry x="48" width="274" height="47" as="geometry">
            <mxRectangle width="274" height="47" as="alternateBounds" />
          </mxGeometry>
        </mxCell>
        <mxCell id="shRPoWkxmLKZgk2j-F8d-491" value="Timestamp of status change" style="shape=partialRectangle;connectable=0;fillColor=none;top=0;left=0;bottom=0;right=0;align=left;spacingLeft=2;overflow=hidden;fontSize=13;labelBackgroundColor=none;rounded=1;strokeColor=#028090;fontColor=#E4FDE1;" vertex="1" parent="shRPoWkxmLKZgk2j-F8d-488">
          <mxGeometry x="322" width="180" height="47" as="geometry">
            <mxRectangle width="180" height="47" as="alternateBounds" />
          </mxGeometry>
        </mxCell>
        <mxCell id="shRPoWkxmLKZgk2j-F8d-492" value="FARE_RULE" style="shape=table;startSize=25;container=1;collapsible=0;childLayout=tableLayout;fixedRows=1;rowLines=1;fontStyle=1;align=center;resizeLast=1;fontSize=13;labelBackgroundColor=none;rounded=1;fillColor=#F45B69;strokeColor=#028090;fontColor=#E4FDE1;" vertex="1" parent="1">
          <mxGeometry x="3020" y="20" width="382" height="301" as="geometry" />
        </mxCell>
        <mxCell id="shRPoWkxmLKZgk2j-F8d-493" style="shape=tableRow;horizontal=0;startSize=0;swimlaneHead=0;swimlaneBody=0;fillColor=none;collapsible=0;dropTarget=0;points=[[0,0.5],[1,0.5]];portConstraint=eastwest;top=0;left=0;right=0;bottom=0;fontSize=13;labelBackgroundColor=none;rounded=1;strokeColor=#028090;fontColor=#E4FDE1;" vertex="1" parent="shRPoWkxmLKZgk2j-F8d-492">
          <mxGeometry y="25" width="382" height="46" as="geometry" />
        </mxCell>
        <mxCell id="shRPoWkxmLKZgk2j-F8d-494" value="BIGINT" style="shape=partialRectangle;connectable=0;fillColor=none;top=0;left=0;bottom=0;right=0;align=left;spacingLeft=2;overflow=hidden;fontSize=13;labelBackgroundColor=none;rounded=1;strokeColor=#028090;fontColor=#E4FDE1;" vertex="1" parent="shRPoWkxmLKZgk2j-F8d-493">
          <mxGeometry width="42" height="46" as="geometry">
            <mxRectangle width="42" height="46" as="alternateBounds" />
          </mxGeometry>
        </mxCell>
        <mxCell id="shRPoWkxmLKZgk2j-F8d-495" value="id" style="shape=partialRectangle;connectable=0;fillColor=none;top=0;left=0;bottom=0;right=0;align=left;spacingLeft=2;overflow=hidden;fontSize=13;labelBackgroundColor=none;rounded=1;strokeColor=#028090;fontColor=#E4FDE1;" vertex="1" parent="shRPoWkxmLKZgk2j-F8d-493">
          <mxGeometry x="42" width="244" height="46" as="geometry">
            <mxRectangle width="244" height="46" as="alternateBounds" />
          </mxGeometry>
        </mxCell>
        <mxCell id="shRPoWkxmLKZgk2j-F8d-496" value="PK: Fare rule ID" style="shape=partialRectangle;connectable=0;fillColor=none;top=0;left=0;bottom=0;right=0;align=left;spacingLeft=2;overflow=hidden;fontSize=13;labelBackgroundColor=none;rounded=1;strokeColor=#028090;fontColor=#E4FDE1;" vertex="1" parent="shRPoWkxmLKZgk2j-F8d-493">
          <mxGeometry x="286" width="96" height="46" as="geometry">
            <mxRectangle width="96" height="46" as="alternateBounds" />
          </mxGeometry>
        </mxCell>
        <mxCell id="shRPoWkxmLKZgk2j-F8d-497" style="shape=tableRow;horizontal=0;startSize=0;swimlaneHead=0;swimlaneBody=0;fillColor=none;collapsible=0;dropTarget=0;points=[[0,0.5],[1,0.5]];portConstraint=eastwest;top=0;left=0;right=0;bottom=0;fontSize=13;labelBackgroundColor=none;rounded=1;strokeColor=#028090;fontColor=#E4FDE1;" vertex="1" parent="shRPoWkxmLKZgk2j-F8d-492">
          <mxGeometry y="71" width="382" height="46" as="geometry" />
        </mxCell>
        <mxCell id="shRPoWkxmLKZgk2j-F8d-498" value="VARCHAR" style="shape=partialRectangle;connectable=0;fillColor=none;top=0;left=0;bottom=0;right=0;align=left;spacingLeft=2;overflow=hidden;fontSize=13;labelBackgroundColor=none;rounded=1;strokeColor=#028090;fontColor=#E4FDE1;" vertex="1" parent="shRPoWkxmLKZgk2j-F8d-497">
          <mxGeometry width="42" height="46" as="geometry">
            <mxRectangle width="42" height="46" as="alternateBounds" />
          </mxGeometry>
        </mxCell>
        <mxCell id="shRPoWkxmLKZgk2j-F8d-499" value="rule_name" style="shape=partialRectangle;connectable=0;fillColor=none;top=0;left=0;bottom=0;right=0;align=left;spacingLeft=2;overflow=hidden;fontSize=13;labelBackgroundColor=none;rounded=1;strokeColor=#028090;fontColor=#E4FDE1;" vertex="1" parent="shRPoWkxmLKZgk2j-F8d-497">
          <mxGeometry x="42" width="244" height="46" as="geometry">
            <mxRectangle width="244" height="46" as="alternateBounds" />
          </mxGeometry>
        </mxCell>
        <mxCell id="shRPoWkxmLKZgk2j-F8d-500" value="Rule name" style="shape=partialRectangle;connectable=0;fillColor=none;top=0;left=0;bottom=0;right=0;align=left;spacingLeft=2;overflow=hidden;fontSize=13;labelBackgroundColor=none;rounded=1;strokeColor=#028090;fontColor=#E4FDE1;" vertex="1" parent="shRPoWkxmLKZgk2j-F8d-497">
          <mxGeometry x="286" width="96" height="46" as="geometry">
            <mxRectangle width="96" height="46" as="alternateBounds" />
          </mxGeometry>
        </mxCell>
        <mxCell id="shRPoWkxmLKZgk2j-F8d-501" style="shape=tableRow;horizontal=0;startSize=0;swimlaneHead=0;swimlaneBody=0;fillColor=none;collapsible=0;dropTarget=0;points=[[0,0.5],[1,0.5]];portConstraint=eastwest;top=0;left=0;right=0;bottom=0;fontSize=13;labelBackgroundColor=none;rounded=1;strokeColor=#028090;fontColor=#E4FDE1;" vertex="1" parent="shRPoWkxmLKZgk2j-F8d-492">
          <mxGeometry y="117" width="382" height="46" as="geometry" />
        </mxCell>
        <mxCell id="shRPoWkxmLKZgk2j-F8d-502" value="DECIMAL" style="shape=partialRectangle;connectable=0;fillColor=none;top=0;left=0;bottom=0;right=0;align=left;spacingLeft=2;overflow=hidden;fontSize=13;labelBackgroundColor=none;rounded=1;strokeColor=#028090;fontColor=#E4FDE1;" vertex="1" parent="shRPoWkxmLKZgk2j-F8d-501">
          <mxGeometry width="42" height="46" as="geometry">
            <mxRectangle width="42" height="46" as="alternateBounds" />
          </mxGeometry>
        </mxCell>
        <mxCell id="shRPoWkxmLKZgk2j-F8d-503" value="base_fare" style="shape=partialRectangle;connectable=0;fillColor=none;top=0;left=0;bottom=0;right=0;align=left;spacingLeft=2;overflow=hidden;fontSize=13;labelBackgroundColor=none;rounded=1;strokeColor=#028090;fontColor=#E4FDE1;" vertex="1" parent="shRPoWkxmLKZgk2j-F8d-501">
          <mxGeometry x="42" width="244" height="46" as="geometry">
            <mxRectangle width="244" height="46" as="alternateBounds" />
          </mxGeometry>
        </mxCell>
        <mxCell id="shRPoWkxmLKZgk2j-F8d-504" value="Flat fee" style="shape=partialRectangle;connectable=0;fillColor=none;top=0;left=0;bottom=0;right=0;align=left;spacingLeft=2;overflow=hidden;fontSize=13;labelBackgroundColor=none;rounded=1;strokeColor=#028090;fontColor=#E4FDE1;" vertex="1" parent="shRPoWkxmLKZgk2j-F8d-501">
          <mxGeometry x="286" width="96" height="46" as="geometry">
            <mxRectangle width="96" height="46" as="alternateBounds" />
          </mxGeometry>
        </mxCell>
        <mxCell id="shRPoWkxmLKZgk2j-F8d-505" style="shape=tableRow;horizontal=0;startSize=0;swimlaneHead=0;swimlaneBody=0;fillColor=none;collapsible=0;dropTarget=0;points=[[0,0.5],[1,0.5]];portConstraint=eastwest;top=0;left=0;right=0;bottom=0;fontSize=13;labelBackgroundColor=none;rounded=1;strokeColor=#028090;fontColor=#E4FDE1;" vertex="1" parent="shRPoWkxmLKZgk2j-F8d-492">
          <mxGeometry y="163" width="382" height="46" as="geometry" />
        </mxCell>
        <mxCell id="shRPoWkxmLKZgk2j-F8d-506" value="DECIMAL" style="shape=partialRectangle;connectable=0;fillColor=none;top=0;left=0;bottom=0;right=0;align=left;spacingLeft=2;overflow=hidden;fontSize=13;labelBackgroundColor=none;rounded=1;strokeColor=#028090;fontColor=#E4FDE1;" vertex="1" parent="shRPoWkxmLKZgk2j-F8d-505">
          <mxGeometry width="42" height="46" as="geometry">
            <mxRectangle width="42" height="46" as="alternateBounds" />
          </mxGeometry>
        </mxCell>
        <mxCell id="shRPoWkxmLKZgk2j-F8d-507" value="per_km_rate" style="shape=partialRectangle;connectable=0;fillColor=none;top=0;left=0;bottom=0;right=0;align=left;spacingLeft=2;overflow=hidden;fontSize=13;labelBackgroundColor=none;rounded=1;strokeColor=#028090;fontColor=#E4FDE1;" vertex="1" parent="shRPoWkxmLKZgk2j-F8d-505">
          <mxGeometry x="42" width="244" height="46" as="geometry">
            <mxRectangle width="244" height="46" as="alternateBounds" />
          </mxGeometry>
        </mxCell>
        <mxCell id="shRPoWkxmLKZgk2j-F8d-508" value="Cost per km" style="shape=partialRectangle;connectable=0;fillColor=none;top=0;left=0;bottom=0;right=0;align=left;spacingLeft=2;overflow=hidden;fontSize=13;labelBackgroundColor=none;rounded=1;strokeColor=#028090;fontColor=#E4FDE1;" vertex="1" parent="shRPoWkxmLKZgk2j-F8d-505">
          <mxGeometry x="286" width="96" height="46" as="geometry">
            <mxRectangle width="96" height="46" as="alternateBounds" />
          </mxGeometry>
        </mxCell>
        <mxCell id="shRPoWkxmLKZgk2j-F8d-509" style="shape=tableRow;horizontal=0;startSize=0;swimlaneHead=0;swimlaneBody=0;fillColor=none;collapsible=0;dropTarget=0;points=[[0,0.5],[1,0.5]];portConstraint=eastwest;top=0;left=0;right=0;bottom=0;fontSize=13;labelBackgroundColor=none;rounded=1;strokeColor=#028090;fontColor=#E4FDE1;" vertex="1" parent="shRPoWkxmLKZgk2j-F8d-492">
          <mxGeometry y="209" width="382" height="46" as="geometry" />
        </mxCell>
        <mxCell id="shRPoWkxmLKZgk2j-F8d-510" value="DECIMAL" style="shape=partialRectangle;connectable=0;fillColor=none;top=0;left=0;bottom=0;right=0;align=left;spacingLeft=2;overflow=hidden;fontSize=13;labelBackgroundColor=none;rounded=1;strokeColor=#028090;fontColor=#E4FDE1;" vertex="1" parent="shRPoWkxmLKZgk2j-F8d-509">
          <mxGeometry width="42" height="46" as="geometry">
            <mxRectangle width="42" height="46" as="alternateBounds" />
          </mxGeometry>
        </mxCell>
        <mxCell id="shRPoWkxmLKZgk2j-F8d-511" value="weight_multiplier" style="shape=partialRectangle;connectable=0;fillColor=none;top=0;left=0;bottom=0;right=0;align=left;spacingLeft=2;overflow=hidden;fontSize=13;labelBackgroundColor=none;rounded=1;strokeColor=#028090;fontColor=#E4FDE1;" vertex="1" parent="shRPoWkxmLKZgk2j-F8d-509">
          <mxGeometry x="42" width="244" height="46" as="geometry">
            <mxRectangle width="244" height="46" as="alternateBounds" />
          </mxGeometry>
        </mxCell>
        <mxCell id="shRPoWkxmLKZgk2j-F8d-512" value="Weight factor" style="shape=partialRectangle;connectable=0;fillColor=none;top=0;left=0;bottom=0;right=0;align=left;spacingLeft=2;overflow=hidden;fontSize=13;labelBackgroundColor=none;rounded=1;strokeColor=#028090;fontColor=#E4FDE1;" vertex="1" parent="shRPoWkxmLKZgk2j-F8d-509">
          <mxGeometry x="286" width="96" height="46" as="geometry">
            <mxRectangle width="96" height="46" as="alternateBounds" />
          </mxGeometry>
        </mxCell>
        <mxCell id="shRPoWkxmLKZgk2j-F8d-513" style="shape=tableRow;horizontal=0;startSize=0;swimlaneHead=0;swimlaneBody=0;fillColor=none;collapsible=0;dropTarget=0;points=[[0,0.5],[1,0.5]];portConstraint=eastwest;top=0;left=0;right=0;bottom=0;fontSize=13;labelBackgroundColor=none;rounded=1;strokeColor=#028090;fontColor=#E4FDE1;" vertex="1" parent="shRPoWkxmLKZgk2j-F8d-492">
          <mxGeometry y="255" width="382" height="46" as="geometry" />
        </mxCell>
        <mxCell id="shRPoWkxmLKZgk2j-F8d-514" value="BOOLEAN" style="shape=partialRectangle;connectable=0;fillColor=none;top=0;left=0;bottom=0;right=0;align=left;spacingLeft=2;overflow=hidden;fontSize=13;labelBackgroundColor=none;rounded=1;strokeColor=#028090;fontColor=#E4FDE1;" vertex="1" parent="shRPoWkxmLKZgk2j-F8d-513">
          <mxGeometry width="42" height="46" as="geometry">
            <mxRectangle width="42" height="46" as="alternateBounds" />
          </mxGeometry>
        </mxCell>
        <mxCell id="shRPoWkxmLKZgk2j-F8d-515" value="is_active" style="shape=partialRectangle;connectable=0;fillColor=none;top=0;left=0;bottom=0;right=0;align=left;spacingLeft=2;overflow=hidden;fontSize=13;labelBackgroundColor=none;rounded=1;strokeColor=#028090;fontColor=#E4FDE1;" vertex="1" parent="shRPoWkxmLKZgk2j-F8d-513">
          <mxGeometry x="42" width="244" height="46" as="geometry">
            <mxRectangle width="244" height="46" as="alternateBounds" />
          </mxGeometry>
        </mxCell>
        <mxCell id="shRPoWkxmLKZgk2j-F8d-516" value="Enable/disable" style="shape=partialRectangle;connectable=0;fillColor=none;top=0;left=0;bottom=0;right=0;align=left;spacingLeft=2;overflow=hidden;fontSize=13;labelBackgroundColor=none;rounded=1;strokeColor=#028090;fontColor=#E4FDE1;" vertex="1" parent="shRPoWkxmLKZgk2j-F8d-513">
          <mxGeometry x="286" width="96" height="46" as="geometry">
            <mxRectangle width="96" height="46" as="alternateBounds" />
          </mxGeometry>
        </mxCell>
        <mxCell id="shRPoWkxmLKZgk2j-F8d-517" value="TRANSACTION" style="shape=table;startSize=25;container=1;collapsible=0;childLayout=tableLayout;fixedRows=1;rowLines=1;fontStyle=1;align=center;resizeLast=1;fontSize=13;labelBackgroundColor=none;rounded=1;fillColor=#F45B69;strokeColor=#028090;fontColor=#E4FDE1;" vertex="1" parent="1">
          <mxGeometry x="2849" y="1524" width="395" height="301" as="geometry" />
        </mxCell>
        <mxCell id="shRPoWkxmLKZgk2j-F8d-518" style="shape=tableRow;horizontal=0;startSize=0;swimlaneHead=0;swimlaneBody=0;fillColor=none;collapsible=0;dropTarget=0;points=[[0,0.5],[1,0.5]];portConstraint=eastwest;top=0;left=0;right=0;bottom=0;fontSize=13;labelBackgroundColor=none;rounded=1;strokeColor=#028090;fontColor=#E4FDE1;" vertex="1" parent="shRPoWkxmLKZgk2j-F8d-517">
          <mxGeometry y="25" width="395" height="46" as="geometry" />
        </mxCell>
        <mxCell id="shRPoWkxmLKZgk2j-F8d-519" value="BIGINT" style="shape=partialRectangle;connectable=0;fillColor=none;top=0;left=0;bottom=0;right=0;align=left;spacingLeft=2;overflow=hidden;fontSize=13;labelBackgroundColor=none;rounded=1;strokeColor=#028090;fontColor=#E4FDE1;" vertex="1" parent="shRPoWkxmLKZgk2j-F8d-518">
          <mxGeometry width="48" height="46" as="geometry">
            <mxRectangle width="48" height="46" as="alternateBounds" />
          </mxGeometry>
        </mxCell>
        <mxCell id="shRPoWkxmLKZgk2j-F8d-520" value="id" style="shape=partialRectangle;connectable=0;fillColor=none;top=0;left=0;bottom=0;right=0;align=left;spacingLeft=2;overflow=hidden;fontSize=13;labelBackgroundColor=none;rounded=1;strokeColor=#028090;fontColor=#E4FDE1;" vertex="1" parent="shRPoWkxmLKZgk2j-F8d-518">
          <mxGeometry x="48" width="221" height="46" as="geometry">
            <mxRectangle width="221" height="46" as="alternateBounds" />
          </mxGeometry>
        </mxCell>
        <mxCell id="shRPoWkxmLKZgk2j-F8d-521" value="PK: Transaction ID" style="shape=partialRectangle;connectable=0;fillColor=none;top=0;left=0;bottom=0;right=0;align=left;spacingLeft=2;overflow=hidden;fontSize=13;labelBackgroundColor=none;rounded=1;strokeColor=#028090;fontColor=#E4FDE1;" vertex="1" parent="shRPoWkxmLKZgk2j-F8d-518">
          <mxGeometry x="269" width="126" height="46" as="geometry">
            <mxRectangle width="126" height="46" as="alternateBounds" />
          </mxGeometry>
        </mxCell>
        <mxCell id="shRPoWkxmLKZgk2j-F8d-522" style="shape=tableRow;horizontal=0;startSize=0;swimlaneHead=0;swimlaneBody=0;fillColor=none;collapsible=0;dropTarget=0;points=[[0,0.5],[1,0.5]];portConstraint=eastwest;top=0;left=0;right=0;bottom=0;fontSize=13;labelBackgroundColor=none;rounded=1;strokeColor=#028090;fontColor=#E4FDE1;" vertex="1" parent="shRPoWkxmLKZgk2j-F8d-517">
          <mxGeometry y="71" width="395" height="46" as="geometry" />
        </mxCell>
        <mxCell id="shRPoWkxmLKZgk2j-F8d-523" value="BIGINT" style="shape=partialRectangle;connectable=0;fillColor=none;top=0;left=0;bottom=0;right=0;align=left;spacingLeft=2;overflow=hidden;fontSize=13;labelBackgroundColor=none;rounded=1;strokeColor=#028090;fontColor=#E4FDE1;" vertex="1" parent="shRPoWkxmLKZgk2j-F8d-522">
          <mxGeometry width="48" height="46" as="geometry">
            <mxRectangle width="48" height="46" as="alternateBounds" />
          </mxGeometry>
        </mxCell>
        <mxCell id="shRPoWkxmLKZgk2j-F8d-524" value="booking_id" style="shape=partialRectangle;connectable=0;fillColor=none;top=0;left=0;bottom=0;right=0;align=left;spacingLeft=2;overflow=hidden;fontSize=13;labelBackgroundColor=none;rounded=1;strokeColor=#028090;fontColor=#E4FDE1;" vertex="1" parent="shRPoWkxmLKZgk2j-F8d-522">
          <mxGeometry x="48" width="221" height="46" as="geometry">
            <mxRectangle width="221" height="46" as="alternateBounds" />
          </mxGeometry>
        </mxCell>
        <mxCell id="shRPoWkxmLKZgk2j-F8d-525" value="FK: PARCEL_BOOKING.id" style="shape=partialRectangle;connectable=0;fillColor=none;top=0;left=0;bottom=0;right=0;align=left;spacingLeft=2;overflow=hidden;fontSize=13;labelBackgroundColor=none;rounded=1;strokeColor=#028090;fontColor=#E4FDE1;" vertex="1" parent="shRPoWkxmLKZgk2j-F8d-522">
          <mxGeometry x="269" width="126" height="46" as="geometry">
            <mxRectangle width="126" height="46" as="alternateBounds" />
          </mxGeometry>
        </mxCell>
        <mxCell id="shRPoWkxmLKZgk2j-F8d-526" style="shape=tableRow;horizontal=0;startSize=0;swimlaneHead=0;swimlaneBody=0;fillColor=none;collapsible=0;dropTarget=0;points=[[0,0.5],[1,0.5]];portConstraint=eastwest;top=0;left=0;right=0;bottom=0;fontSize=13;labelBackgroundColor=none;rounded=1;strokeColor=#028090;fontColor=#E4FDE1;" vertex="1" parent="shRPoWkxmLKZgk2j-F8d-517">
          <mxGeometry y="117" width="395" height="46" as="geometry" />
        </mxCell>
        <mxCell id="shRPoWkxmLKZgk2j-F8d-527" value="BIGINT" style="shape=partialRectangle;connectable=0;fillColor=none;top=0;left=0;bottom=0;right=0;align=left;spacingLeft=2;overflow=hidden;fontSize=13;labelBackgroundColor=none;rounded=1;strokeColor=#028090;fontColor=#E4FDE1;" vertex="1" parent="shRPoWkxmLKZgk2j-F8d-526">
          <mxGeometry width="48" height="46" as="geometry">
            <mxRectangle width="48" height="46" as="alternateBounds" />
          </mxGeometry>
        </mxCell>
        <mxCell id="shRPoWkxmLKZgk2j-F8d-528" value="user_id" style="shape=partialRectangle;connectable=0;fillColor=none;top=0;left=0;bottom=0;right=0;align=left;spacingLeft=2;overflow=hidden;fontSize=13;labelBackgroundColor=none;rounded=1;strokeColor=#028090;fontColor=#E4FDE1;" vertex="1" parent="shRPoWkxmLKZgk2j-F8d-526">
          <mxGeometry x="48" width="221" height="46" as="geometry">
            <mxRectangle width="221" height="46" as="alternateBounds" />
          </mxGeometry>
        </mxCell>
        <mxCell id="shRPoWkxmLKZgk2j-F8d-529" value="User involved" style="shape=partialRectangle;connectable=0;fillColor=none;top=0;left=0;bottom=0;right=0;align=left;spacingLeft=2;overflow=hidden;fontSize=13;labelBackgroundColor=none;rounded=1;strokeColor=#028090;fontColor=#E4FDE1;" vertex="1" parent="shRPoWkxmLKZgk2j-F8d-526">
          <mxGeometry x="269" width="126" height="46" as="geometry">
            <mxRectangle width="126" height="46" as="alternateBounds" />
          </mxGeometry>
        </mxCell>
        <mxCell id="shRPoWkxmLKZgk2j-F8d-530" style="shape=tableRow;horizontal=0;startSize=0;swimlaneHead=0;swimlaneBody=0;fillColor=none;collapsible=0;dropTarget=0;points=[[0,0.5],[1,0.5]];portConstraint=eastwest;top=0;left=0;right=0;bottom=0;fontSize=13;labelBackgroundColor=none;rounded=1;strokeColor=#028090;fontColor=#E4FDE1;" vertex="1" parent="shRPoWkxmLKZgk2j-F8d-517">
          <mxGeometry y="163" width="395" height="46" as="geometry" />
        </mxCell>
        <mxCell id="shRPoWkxmLKZgk2j-F8d-531" value="VARCHAR" style="shape=partialRectangle;connectable=0;fillColor=none;top=0;left=0;bottom=0;right=0;align=left;spacingLeft=2;overflow=hidden;fontSize=13;labelBackgroundColor=none;rounded=1;strokeColor=#028090;fontColor=#E4FDE1;" vertex="1" parent="shRPoWkxmLKZgk2j-F8d-530">
          <mxGeometry width="48" height="46" as="geometry">
            <mxRectangle width="48" height="46" as="alternateBounds" />
          </mxGeometry>
        </mxCell>
        <mxCell id="shRPoWkxmLKZgk2j-F8d-532" value="type" style="shape=partialRectangle;connectable=0;fillColor=none;top=0;left=0;bottom=0;right=0;align=left;spacingLeft=2;overflow=hidden;fontSize=13;labelBackgroundColor=none;rounded=1;strokeColor=#028090;fontColor=#E4FDE1;" vertex="1" parent="shRPoWkxmLKZgk2j-F8d-530">
          <mxGeometry x="48" width="221" height="46" as="geometry">
            <mxRectangle width="221" height="46" as="alternateBounds" />
          </mxGeometry>
        </mxCell>
        <mxCell id="shRPoWkxmLKZgk2j-F8d-533" value="PAYMENT or EARNING" style="shape=partialRectangle;connectable=0;fillColor=none;top=0;left=0;bottom=0;right=0;align=left;spacingLeft=2;overflow=hidden;fontSize=13;labelBackgroundColor=none;rounded=1;strokeColor=#028090;fontColor=#E4FDE1;" vertex="1" parent="shRPoWkxmLKZgk2j-F8d-530">
          <mxGeometry x="269" width="126" height="46" as="geometry">
            <mxRectangle width="126" height="46" as="alternateBounds" />
          </mxGeometry>
        </mxCell>
        <mxCell id="shRPoWkxmLKZgk2j-F8d-534" style="shape=tableRow;horizontal=0;startSize=0;swimlaneHead=0;swimlaneBody=0;fillColor=none;collapsible=0;dropTarget=0;points=[[0,0.5],[1,0.5]];portConstraint=eastwest;top=0;left=0;right=0;bottom=0;fontSize=13;labelBackgroundColor=none;rounded=1;strokeColor=#028090;fontColor=#E4FDE1;" vertex="1" parent="shRPoWkxmLKZgk2j-F8d-517">
          <mxGeometry y="209" width="395" height="46" as="geometry" />
        </mxCell>
        <mxCell id="shRPoWkxmLKZgk2j-F8d-535" value="DECIMAL" style="shape=partialRectangle;connectable=0;fillColor=none;top=0;left=0;bottom=0;right=0;align=left;spacingLeft=2;overflow=hidden;fontSize=13;labelBackgroundColor=none;rounded=1;strokeColor=#028090;fontColor=#E4FDE1;" vertex="1" parent="shRPoWkxmLKZgk2j-F8d-534">
          <mxGeometry width="48" height="46" as="geometry">
            <mxRectangle width="48" height="46" as="alternateBounds" />
          </mxGeometry>
        </mxCell>
        <mxCell id="shRPoWkxmLKZgk2j-F8d-536" value="amount" style="shape=partialRectangle;connectable=0;fillColor=none;top=0;left=0;bottom=0;right=0;align=left;spacingLeft=2;overflow=hidden;fontSize=13;labelBackgroundColor=none;rounded=1;strokeColor=#028090;fontColor=#E4FDE1;" vertex="1" parent="shRPoWkxmLKZgk2j-F8d-534">
          <mxGeometry x="48" width="221" height="46" as="geometry">
            <mxRectangle width="221" height="46" as="alternateBounds" />
          </mxGeometry>
        </mxCell>
        <mxCell id="shRPoWkxmLKZgk2j-F8d-537" value="Monetary value" style="shape=partialRectangle;connectable=0;fillColor=none;top=0;left=0;bottom=0;right=0;align=left;spacingLeft=2;overflow=hidden;fontSize=13;labelBackgroundColor=none;rounded=1;strokeColor=#028090;fontColor=#E4FDE1;" vertex="1" parent="shRPoWkxmLKZgk2j-F8d-534">
          <mxGeometry x="269" width="126" height="46" as="geometry">
            <mxRectangle width="126" height="46" as="alternateBounds" />
          </mxGeometry>
        </mxCell>
        <mxCell id="shRPoWkxmLKZgk2j-F8d-538" style="shape=tableRow;horizontal=0;startSize=0;swimlaneHead=0;swimlaneBody=0;fillColor=none;collapsible=0;dropTarget=0;points=[[0,0.5],[1,0.5]];portConstraint=eastwest;top=0;left=0;right=0;bottom=0;fontSize=13;labelBackgroundColor=none;rounded=1;strokeColor=#028090;fontColor=#E4FDE1;" vertex="1" parent="shRPoWkxmLKZgk2j-F8d-517">
          <mxGeometry y="255" width="395" height="46" as="geometry" />
        </mxCell>
        <mxCell id="shRPoWkxmLKZgk2j-F8d-539" value="DATETIME" style="shape=partialRectangle;connectable=0;fillColor=none;top=0;left=0;bottom=0;right=0;align=left;spacingLeft=2;overflow=hidden;fontSize=13;labelBackgroundColor=none;rounded=1;strokeColor=#028090;fontColor=#E4FDE1;" vertex="1" parent="shRPoWkxmLKZgk2j-F8d-538">
          <mxGeometry width="48" height="46" as="geometry">
            <mxRectangle width="48" height="46" as="alternateBounds" />
          </mxGeometry>
        </mxCell>
        <mxCell id="shRPoWkxmLKZgk2j-F8d-540" value="timestamp" style="shape=partialRectangle;connectable=0;fillColor=none;top=0;left=0;bottom=0;right=0;align=left;spacingLeft=2;overflow=hidden;fontSize=13;labelBackgroundColor=none;rounded=1;strokeColor=#028090;fontColor=#E4FDE1;" vertex="1" parent="shRPoWkxmLKZgk2j-F8d-538">
          <mxGeometry x="48" width="221" height="46" as="geometry">
            <mxRectangle width="221" height="46" as="alternateBounds" />
          </mxGeometry>
        </mxCell>
        <mxCell id="shRPoWkxmLKZgk2j-F8d-541" value="Transaction time" style="shape=partialRectangle;connectable=0;fillColor=none;top=0;left=0;bottom=0;right=0;align=left;spacingLeft=2;overflow=hidden;fontSize=13;labelBackgroundColor=none;rounded=1;strokeColor=#028090;fontColor=#E4FDE1;" vertex="1" parent="shRPoWkxmLKZgk2j-F8d-538">
          <mxGeometry x="269" width="126" height="46" as="geometry">
            <mxRectangle width="126" height="46" as="alternateBounds" />
          </mxGeometry>
        </mxCell>
        <mxCell id="shRPoWkxmLKZgk2j-F8d-542" value="RIDER_EARNING_LEDGER" style="shape=table;startSize=25;container=1;collapsible=0;childLayout=tableLayout;fixedRows=1;rowLines=1;fontStyle=1;align=center;resizeLast=1;fontSize=13;labelBackgroundColor=none;rounded=1;fillColor=#F45B69;strokeColor=#028090;fontColor=#E4FDE1;" vertex="1" parent="1">
          <mxGeometry x="3073" y="1080" width="394" height="172" as="geometry" />
        </mxCell>
        <mxCell id="shRPoWkxmLKZgk2j-F8d-543" style="shape=tableRow;horizontal=0;startSize=0;swimlaneHead=0;swimlaneBody=0;fillColor=none;collapsible=0;dropTarget=0;points=[[0,0.5],[1,0.5]];portConstraint=eastwest;top=0;left=0;right=0;bottom=0;fontSize=13;labelBackgroundColor=none;rounded=1;strokeColor=#028090;fontColor=#E4FDE1;" vertex="1" parent="shRPoWkxmLKZgk2j-F8d-542">
          <mxGeometry y="25" width="394" height="49" as="geometry" />
        </mxCell>
        <mxCell id="shRPoWkxmLKZgk2j-F8d-544" value="BIGINT" style="shape=partialRectangle;connectable=0;fillColor=none;top=0;left=0;bottom=0;right=0;align=left;spacingLeft=2;overflow=hidden;fontSize=13;labelBackgroundColor=none;rounded=1;strokeColor=#028090;fontColor=#E4FDE1;" vertex="1" parent="shRPoWkxmLKZgk2j-F8d-543">
          <mxGeometry width="42" height="49" as="geometry">
            <mxRectangle width="42" height="49" as="alternateBounds" />
          </mxGeometry>
        </mxCell>
        <mxCell id="shRPoWkxmLKZgk2j-F8d-545" value="rider_id" style="shape=partialRectangle;connectable=0;fillColor=none;top=0;left=0;bottom=0;right=0;align=left;spacingLeft=2;overflow=hidden;fontSize=13;labelBackgroundColor=none;rounded=1;strokeColor=#028090;fontColor=#E4FDE1;" vertex="1" parent="shRPoWkxmLKZgk2j-F8d-543">
          <mxGeometry x="42" width="262" height="49" as="geometry">
            <mxRectangle width="262" height="49" as="alternateBounds" />
          </mxGeometry>
        </mxCell>
        <mxCell id="shRPoWkxmLKZgk2j-F8d-546" value="PK, FK: USER.id" style="shape=partialRectangle;connectable=0;fillColor=none;top=0;left=0;bottom=0;right=0;align=left;spacingLeft=2;overflow=hidden;fontSize=13;labelBackgroundColor=none;rounded=1;strokeColor=#028090;fontColor=#E4FDE1;" vertex="1" parent="shRPoWkxmLKZgk2j-F8d-543">
          <mxGeometry x="304" width="90" height="49" as="geometry">
            <mxRectangle width="90" height="49" as="alternateBounds" />
          </mxGeometry>
        </mxCell>
        <mxCell id="shRPoWkxmLKZgk2j-F8d-547" style="shape=tableRow;horizontal=0;startSize=0;swimlaneHead=0;swimlaneBody=0;fillColor=none;collapsible=0;dropTarget=0;points=[[0,0.5],[1,0.5]];portConstraint=eastwest;top=0;left=0;right=0;bottom=0;fontSize=13;labelBackgroundColor=none;rounded=1;strokeColor=#028090;fontColor=#E4FDE1;" vertex="1" parent="shRPoWkxmLKZgk2j-F8d-542">
          <mxGeometry y="74" width="394" height="49" as="geometry" />
        </mxCell>
        <mxCell id="shRPoWkxmLKZgk2j-F8d-548" value="DECIMAL" style="shape=partialRectangle;connectable=0;fillColor=none;top=0;left=0;bottom=0;right=0;align=left;spacingLeft=2;overflow=hidden;fontSize=13;labelBackgroundColor=none;rounded=1;strokeColor=#028090;fontColor=#E4FDE1;" vertex="1" parent="shRPoWkxmLKZgk2j-F8d-547">
          <mxGeometry width="42" height="49" as="geometry">
            <mxRectangle width="42" height="49" as="alternateBounds" />
          </mxGeometry>
        </mxCell>
        <mxCell id="shRPoWkxmLKZgk2j-F8d-549" value="total_balance" style="shape=partialRectangle;connectable=0;fillColor=none;top=0;left=0;bottom=0;right=0;align=left;spacingLeft=2;overflow=hidden;fontSize=13;labelBackgroundColor=none;rounded=1;strokeColor=#028090;fontColor=#E4FDE1;" vertex="1" parent="shRPoWkxmLKZgk2j-F8d-547">
          <mxGeometry x="42" width="262" height="49" as="geometry">
            <mxRectangle width="262" height="49" as="alternateBounds" />
          </mxGeometry>
        </mxCell>
        <mxCell id="shRPoWkxmLKZgk2j-F8d-550" value="Total balance" style="shape=partialRectangle;connectable=0;fillColor=none;top=0;left=0;bottom=0;right=0;align=left;spacingLeft=2;overflow=hidden;fontSize=13;labelBackgroundColor=none;rounded=1;strokeColor=#028090;fontColor=#E4FDE1;" vertex="1" parent="shRPoWkxmLKZgk2j-F8d-547">
          <mxGeometry x="304" width="90" height="49" as="geometry">
            <mxRectangle width="90" height="49" as="alternateBounds" />
          </mxGeometry>
        </mxCell>
        <mxCell id="shRPoWkxmLKZgk2j-F8d-551" style="shape=tableRow;horizontal=0;startSize=0;swimlaneHead=0;swimlaneBody=0;fillColor=none;collapsible=0;dropTarget=0;points=[[0,0.5],[1,0.5]];portConstraint=eastwest;top=0;left=0;right=0;bottom=0;fontSize=13;labelBackgroundColor=none;rounded=1;strokeColor=#028090;fontColor=#E4FDE1;" vertex="1" parent="shRPoWkxmLKZgk2j-F8d-542">
          <mxGeometry y="123" width="394" height="49" as="geometry" />
        </mxCell>
        <mxCell id="shRPoWkxmLKZgk2j-F8d-552" value="DECIMAL" style="shape=partialRectangle;connectable=0;fillColor=none;top=0;left=0;bottom=0;right=0;align=left;spacingLeft=2;overflow=hidden;fontSize=13;labelBackgroundColor=none;rounded=1;strokeColor=#028090;fontColor=#E4FDE1;" vertex="1" parent="shRPoWkxmLKZgk2j-F8d-551">
          <mxGeometry width="42" height="49" as="geometry">
            <mxRectangle width="42" height="49" as="alternateBounds" />
          </mxGeometry>
        </mxCell>
        <mxCell id="shRPoWkxmLKZgk2j-F8d-553" value="last_payout_amount" style="shape=partialRectangle;connectable=0;fillColor=none;top=0;left=0;bottom=0;right=0;align=left;spacingLeft=2;overflow=hidden;fontSize=13;labelBackgroundColor=none;rounded=1;strokeColor=#028090;fontColor=#E4FDE1;" vertex="1" parent="shRPoWkxmLKZgk2j-F8d-551">
          <mxGeometry x="42" width="262" height="49" as="geometry">
            <mxRectangle width="262" height="49" as="alternateBounds" />
          </mxGeometry>
        </mxCell>
        <mxCell id="shRPoWkxmLKZgk2j-F8d-554" value="Last payout" style="shape=partialRectangle;connectable=0;fillColor=none;top=0;left=0;bottom=0;right=0;align=left;spacingLeft=2;overflow=hidden;fontSize=13;labelBackgroundColor=none;rounded=1;strokeColor=#028090;fontColor=#E4FDE1;" vertex="1" parent="shRPoWkxmLKZgk2j-F8d-551">
          <mxGeometry x="304" width="90" height="49" as="geometry">
            <mxRectangle width="90" height="49" as="alternateBounds" />
          </mxGeometry>
        </mxCell>
        <mxCell id="shRPoWkxmLKZgk2j-F8d-555" value="RIDER_FEEDBACK" style="shape=table;startSize=25;container=1;collapsible=0;childLayout=tableLayout;fixedRows=1;rowLines=1;fontStyle=1;align=center;resizeLast=1;fontSize=13;labelBackgroundColor=none;rounded=1;fillColor=#F45B69;strokeColor=#028090;fontColor=#E4FDE1;" vertex="1" parent="1">
          <mxGeometry x="3746" y="1524" width="385" height="301" as="geometry" />
        </mxCell>
        <mxCell id="shRPoWkxmLKZgk2j-F8d-556" style="shape=tableRow;horizontal=0;startSize=0;swimlaneHead=0;swimlaneBody=0;fillColor=none;collapsible=0;dropTarget=0;points=[[0,0.5],[1,0.5]];portConstraint=eastwest;top=0;left=0;right=0;bottom=0;fontSize=13;labelBackgroundColor=none;rounded=1;strokeColor=#028090;fontColor=#E4FDE1;" vertex="1" parent="shRPoWkxmLKZgk2j-F8d-555">
          <mxGeometry y="25" width="385" height="46" as="geometry" />
        </mxCell>
        <mxCell id="shRPoWkxmLKZgk2j-F8d-557" value="BIGINT" style="shape=partialRectangle;connectable=0;fillColor=none;top=0;left=0;bottom=0;right=0;align=left;spacingLeft=2;overflow=hidden;fontSize=13;labelBackgroundColor=none;rounded=1;strokeColor=#028090;fontColor=#E4FDE1;" vertex="1" parent="shRPoWkxmLKZgk2j-F8d-556">
          <mxGeometry width="36" height="46" as="geometry">
            <mxRectangle width="36" height="46" as="alternateBounds" />
          </mxGeometry>
        </mxCell>
        <mxCell id="shRPoWkxmLKZgk2j-F8d-558" value="id" style="shape=partialRectangle;connectable=0;fillColor=none;top=0;left=0;bottom=0;right=0;align=left;spacingLeft=2;overflow=hidden;fontSize=13;labelBackgroundColor=none;rounded=1;strokeColor=#028090;fontColor=#E4FDE1;" vertex="1" parent="shRPoWkxmLKZgk2j-F8d-556">
          <mxGeometry x="36" width="223" height="46" as="geometry">
            <mxRectangle width="223" height="46" as="alternateBounds" />
          </mxGeometry>
        </mxCell>
        <mxCell id="shRPoWkxmLKZgk2j-F8d-559" value="PK: Review ID" style="shape=partialRectangle;connectable=0;fillColor=none;top=0;left=0;bottom=0;right=0;align=left;spacingLeft=2;overflow=hidden;fontSize=13;labelBackgroundColor=none;rounded=1;strokeColor=#028090;fontColor=#E4FDE1;" vertex="1" parent="shRPoWkxmLKZgk2j-F8d-556">
          <mxGeometry x="259" width="126" height="46" as="geometry">
            <mxRectangle width="126" height="46" as="alternateBounds" />
          </mxGeometry>
        </mxCell>
        <mxCell id="shRPoWkxmLKZgk2j-F8d-560" style="shape=tableRow;horizontal=0;startSize=0;swimlaneHead=0;swimlaneBody=0;fillColor=none;collapsible=0;dropTarget=0;points=[[0,0.5],[1,0.5]];portConstraint=eastwest;top=0;left=0;right=0;bottom=0;fontSize=13;labelBackgroundColor=none;rounded=1;strokeColor=#028090;fontColor=#E4FDE1;" vertex="1" parent="shRPoWkxmLKZgk2j-F8d-555">
          <mxGeometry y="71" width="385" height="46" as="geometry" />
        </mxCell>
        <mxCell id="shRPoWkxmLKZgk2j-F8d-561" value="BIGINT" style="shape=partialRectangle;connectable=0;fillColor=none;top=0;left=0;bottom=0;right=0;align=left;spacingLeft=2;overflow=hidden;fontSize=13;labelBackgroundColor=none;rounded=1;strokeColor=#028090;fontColor=#E4FDE1;" vertex="1" parent="shRPoWkxmLKZgk2j-F8d-560">
          <mxGeometry width="36" height="46" as="geometry">
            <mxRectangle width="36" height="46" as="alternateBounds" />
          </mxGeometry>
        </mxCell>
        <mxCell id="shRPoWkxmLKZgk2j-F8d-562" value="booking_id" style="shape=partialRectangle;connectable=0;fillColor=none;top=0;left=0;bottom=0;right=0;align=left;spacingLeft=2;overflow=hidden;fontSize=13;labelBackgroundColor=none;rounded=1;strokeColor=#028090;fontColor=#E4FDE1;" vertex="1" parent="shRPoWkxmLKZgk2j-F8d-560">
          <mxGeometry x="36" width="223" height="46" as="geometry">
            <mxRectangle width="223" height="46" as="alternateBounds" />
          </mxGeometry>
        </mxCell>
        <mxCell id="shRPoWkxmLKZgk2j-F8d-563" value="FK: PARCEL_BOOKING.id" style="shape=partialRectangle;connectable=0;fillColor=none;top=0;left=0;bottom=0;right=0;align=left;spacingLeft=2;overflow=hidden;fontSize=13;labelBackgroundColor=none;rounded=1;strokeColor=#028090;fontColor=#E4FDE1;" vertex="1" parent="shRPoWkxmLKZgk2j-F8d-560">
          <mxGeometry x="259" width="126" height="46" as="geometry">
            <mxRectangle width="126" height="46" as="alternateBounds" />
          </mxGeometry>
        </mxCell>
        <mxCell id="shRPoWkxmLKZgk2j-F8d-564" style="shape=tableRow;horizontal=0;startSize=0;swimlaneHead=0;swimlaneBody=0;fillColor=none;collapsible=0;dropTarget=0;points=[[0,0.5],[1,0.5]];portConstraint=eastwest;top=0;left=0;right=0;bottom=0;fontSize=13;labelBackgroundColor=none;rounded=1;strokeColor=#028090;fontColor=#E4FDE1;" vertex="1" parent="shRPoWkxmLKZgk2j-F8d-555">
          <mxGeometry y="117" width="385" height="46" as="geometry" />
        </mxCell>
        <mxCell id="shRPoWkxmLKZgk2j-F8d-565" value="BIGINT" style="shape=partialRectangle;connectable=0;fillColor=none;top=0;left=0;bottom=0;right=0;align=left;spacingLeft=2;overflow=hidden;fontSize=13;labelBackgroundColor=none;rounded=1;strokeColor=#028090;fontColor=#E4FDE1;" vertex="1" parent="shRPoWkxmLKZgk2j-F8d-564">
          <mxGeometry width="36" height="46" as="geometry">
            <mxRectangle width="36" height="46" as="alternateBounds" />
          </mxGeometry>
        </mxCell>
        <mxCell id="shRPoWkxmLKZgk2j-F8d-566" value="customer_id" style="shape=partialRectangle;connectable=0;fillColor=none;top=0;left=0;bottom=0;right=0;align=left;spacingLeft=2;overflow=hidden;fontSize=13;labelBackgroundColor=none;rounded=1;strokeColor=#028090;fontColor=#E4FDE1;" vertex="1" parent="shRPoWkxmLKZgk2j-F8d-564">
          <mxGeometry x="36" width="223" height="46" as="geometry">
            <mxRectangle width="223" height="46" as="alternateBounds" />
          </mxGeometry>
        </mxCell>
        <mxCell id="shRPoWkxmLKZgk2j-F8d-567" value="FK: USER.id" style="shape=partialRectangle;connectable=0;fillColor=none;top=0;left=0;bottom=0;right=0;align=left;spacingLeft=2;overflow=hidden;fontSize=13;labelBackgroundColor=none;rounded=1;strokeColor=#028090;fontColor=#E4FDE1;" vertex="1" parent="shRPoWkxmLKZgk2j-F8d-564">
          <mxGeometry x="259" width="126" height="46" as="geometry">
            <mxRectangle width="126" height="46" as="alternateBounds" />
          </mxGeometry>
        </mxCell>
        <mxCell id="shRPoWkxmLKZgk2j-F8d-568" style="shape=tableRow;horizontal=0;startSize=0;swimlaneHead=0;swimlaneBody=0;fillColor=none;collapsible=0;dropTarget=0;points=[[0,0.5],[1,0.5]];portConstraint=eastwest;top=0;left=0;right=0;bottom=0;fontSize=13;labelBackgroundColor=none;rounded=1;strokeColor=#028090;fontColor=#E4FDE1;" vertex="1" parent="shRPoWkxmLKZgk2j-F8d-555">
          <mxGeometry y="163" width="385" height="46" as="geometry" />
        </mxCell>
        <mxCell id="shRPoWkxmLKZgk2j-F8d-569" value="BIGINT" style="shape=partialRectangle;connectable=0;fillColor=none;top=0;left=0;bottom=0;right=0;align=left;spacingLeft=2;overflow=hidden;fontSize=13;labelBackgroundColor=none;rounded=1;strokeColor=#028090;fontColor=#E4FDE1;" vertex="1" parent="shRPoWkxmLKZgk2j-F8d-568">
          <mxGeometry width="36" height="46" as="geometry">
            <mxRectangle width="36" height="46" as="alternateBounds" />
          </mxGeometry>
        </mxCell>
        <mxCell id="shRPoWkxmLKZgk2j-F8d-570" value="rider_id" style="shape=partialRectangle;connectable=0;fillColor=none;top=0;left=0;bottom=0;right=0;align=left;spacingLeft=2;overflow=hidden;fontSize=13;labelBackgroundColor=none;rounded=1;strokeColor=#028090;fontColor=#E4FDE1;" vertex="1" parent="shRPoWkxmLKZgk2j-F8d-568">
          <mxGeometry x="36" width="223" height="46" as="geometry">
            <mxRectangle width="223" height="46" as="alternateBounds" />
          </mxGeometry>
        </mxCell>
        <mxCell id="shRPoWkxmLKZgk2j-F8d-571" value="FK: USER.id" style="shape=partialRectangle;connectable=0;fillColor=none;top=0;left=0;bottom=0;right=0;align=left;spacingLeft=2;overflow=hidden;fontSize=13;labelBackgroundColor=none;rounded=1;strokeColor=#028090;fontColor=#E4FDE1;" vertex="1" parent="shRPoWkxmLKZgk2j-F8d-568">
          <mxGeometry x="259" width="126" height="46" as="geometry">
            <mxRectangle width="126" height="46" as="alternateBounds" />
          </mxGeometry>
        </mxCell>
        <mxCell id="shRPoWkxmLKZgk2j-F8d-572" style="shape=tableRow;horizontal=0;startSize=0;swimlaneHead=0;swimlaneBody=0;fillColor=none;collapsible=0;dropTarget=0;points=[[0,0.5],[1,0.5]];portConstraint=eastwest;top=0;left=0;right=0;bottom=0;fontSize=13;labelBackgroundColor=none;rounded=1;strokeColor=#028090;fontColor=#E4FDE1;" vertex="1" parent="shRPoWkxmLKZgk2j-F8d-555">
          <mxGeometry y="209" width="385" height="46" as="geometry" />
        </mxCell>
        <mxCell id="shRPoWkxmLKZgk2j-F8d-573" value="INT" style="shape=partialRectangle;connectable=0;fillColor=none;top=0;left=0;bottom=0;right=0;align=left;spacingLeft=2;overflow=hidden;fontSize=13;labelBackgroundColor=none;rounded=1;strokeColor=#028090;fontColor=#E4FDE1;" vertex="1" parent="shRPoWkxmLKZgk2j-F8d-572">
          <mxGeometry width="36" height="46" as="geometry">
            <mxRectangle width="36" height="46" as="alternateBounds" />
          </mxGeometry>
        </mxCell>
        <mxCell id="shRPoWkxmLKZgk2j-F8d-574" value="rating" style="shape=partialRectangle;connectable=0;fillColor=none;top=0;left=0;bottom=0;right=0;align=left;spacingLeft=2;overflow=hidden;fontSize=13;labelBackgroundColor=none;rounded=1;strokeColor=#028090;fontColor=#E4FDE1;" vertex="1" parent="shRPoWkxmLKZgk2j-F8d-572">
          <mxGeometry x="36" width="223" height="46" as="geometry">
            <mxRectangle width="223" height="46" as="alternateBounds" />
          </mxGeometry>
        </mxCell>
        <mxCell id="shRPoWkxmLKZgk2j-F8d-575" value="1-5 rating" style="shape=partialRectangle;connectable=0;fillColor=none;top=0;left=0;bottom=0;right=0;align=left;spacingLeft=2;overflow=hidden;fontSize=13;labelBackgroundColor=none;rounded=1;strokeColor=#028090;fontColor=#E4FDE1;" vertex="1" parent="shRPoWkxmLKZgk2j-F8d-572">
          <mxGeometry x="259" width="126" height="46" as="geometry">
            <mxRectangle width="126" height="46" as="alternateBounds" />
          </mxGeometry>
        </mxCell>
        <mxCell id="shRPoWkxmLKZgk2j-F8d-576" style="shape=tableRow;horizontal=0;startSize=0;swimlaneHead=0;swimlaneBody=0;fillColor=none;collapsible=0;dropTarget=0;points=[[0,0.5],[1,0.5]];portConstraint=eastwest;top=0;left=0;right=0;bottom=0;fontSize=13;labelBackgroundColor=none;rounded=1;strokeColor=#028090;fontColor=#E4FDE1;" vertex="1" parent="shRPoWkxmLKZgk2j-F8d-555">
          <mxGeometry y="255" width="385" height="46" as="geometry" />
        </mxCell>
        <mxCell id="shRPoWkxmLKZgk2j-F8d-577" value="TEXT" style="shape=partialRectangle;connectable=0;fillColor=none;top=0;left=0;bottom=0;right=0;align=left;spacingLeft=2;overflow=hidden;fontSize=13;labelBackgroundColor=none;rounded=1;strokeColor=#028090;fontColor=#E4FDE1;" vertex="1" parent="shRPoWkxmLKZgk2j-F8d-576">
          <mxGeometry width="36" height="46" as="geometry">
            <mxRectangle width="36" height="46" as="alternateBounds" />
          </mxGeometry>
        </mxCell>
        <mxCell id="shRPoWkxmLKZgk2j-F8d-578" value="comment" style="shape=partialRectangle;connectable=0;fillColor=none;top=0;left=0;bottom=0;right=0;align=left;spacingLeft=2;overflow=hidden;fontSize=13;labelBackgroundColor=none;rounded=1;strokeColor=#028090;fontColor=#E4FDE1;" vertex="1" parent="shRPoWkxmLKZgk2j-F8d-576">
          <mxGeometry x="36" width="223" height="46" as="geometry">
            <mxRectangle width="223" height="46" as="alternateBounds" />
          </mxGeometry>
        </mxCell>
        <mxCell id="shRPoWkxmLKZgk2j-F8d-579" value="Feedback text" style="shape=partialRectangle;connectable=0;fillColor=none;top=0;left=0;bottom=0;right=0;align=left;spacingLeft=2;overflow=hidden;fontSize=13;labelBackgroundColor=none;rounded=1;strokeColor=#028090;fontColor=#E4FDE1;" vertex="1" parent="shRPoWkxmLKZgk2j-F8d-576">
          <mxGeometry x="259" width="126" height="46" as="geometry">
            <mxRectangle width="126" height="46" as="alternateBounds" />
          </mxGeometry>
        </mxCell>
        <mxCell id="shRPoWkxmLKZgk2j-F8d-580" value="assigned to" style="curved=1;startArrow=ERmandOne;startSize=10;;endArrow=ERzeroToMany;endSize=10;;exitX=0.5;exitY=1;entryX=0.5;entryY=0;rounded=1;fontSize=13;labelBackgroundColor=none;fontColor=default;strokeColor=#028090;" edge="1" parent="1" source="shRPoWkxmLKZgk2j-F8d-345" target="shRPoWkxmLKZgk2j-F8d-312">
          <mxGeometry relative="1" as="geometry">
            <Array as="points" />
          </mxGeometry>
        </mxCell>
        <mxCell id="shRPoWkxmLKZgk2j-F8d-581" value="customer" style="curved=1;startArrow=ERmandOne;startSize=10;;endArrow=ERzeroToMany;endSize=10;;exitX=0;exitY=0.56;entryX=0.45;entryY=0;rounded=1;fontSize=13;labelBackgroundColor=none;fontColor=default;strokeColor=#028090;" edge="1" parent="1" source="shRPoWkxmLKZgk2j-F8d-312" target="shRPoWkxmLKZgk2j-F8d-354">
          <mxGeometry relative="1" as="geometry">
            <Array as="points">
              <mxPoint x="272" y="858" />
            </Array>
          </mxGeometry>
        </mxCell>
        <mxCell id="shRPoWkxmLKZgk2j-F8d-582" value="rider" style="curved=1;startArrow=ERmandOne;startSize=10;;endArrow=ERzeroToMany;endSize=10;;exitX=0;exitY=0.57;entryX=0.89;entryY=0;rounded=1;fontSize=13;labelBackgroundColor=none;fontColor=default;strokeColor=#028090;" edge="1" parent="1" source="shRPoWkxmLKZgk2j-F8d-312" target="shRPoWkxmLKZgk2j-F8d-354">
          <mxGeometry relative="1" as="geometry">
            <Array as="points">
              <mxPoint x="577" y="858" />
            </Array>
          </mxGeometry>
        </mxCell>
        <mxCell id="shRPoWkxmLKZgk2j-F8d-583" value="has status history" style="curved=1;startArrow=ERmandOne;startSize=10;;endArrow=ERzeroToMany;endSize=10;;exitX=0.41;exitY=1;entryX=0.5;entryY=0;rounded=1;fontSize=13;labelBackgroundColor=none;fontColor=default;strokeColor=#028090;" edge="1" parent="1" source="shRPoWkxmLKZgk2j-F8d-354" target="shRPoWkxmLKZgk2j-F8d-399">
          <mxGeometry relative="1" as="geometry">
            <Array as="points">
              <mxPoint x="249" y="1473" />
            </Array>
          </mxGeometry>
        </mxCell>
        <mxCell id="shRPoWkxmLKZgk2j-F8d-584" value="customer profile" style="curved=1;startArrow=ERmandOne;startSize=10;;endArrow=ERzeroToMany;endSize=10;;exitX=0;exitY=0.58;entryX=0.5;entryY=0;rounded=1;fontSize=13;labelBackgroundColor=none;fontColor=default;strokeColor=#028090;" edge="1" parent="1" source="shRPoWkxmLKZgk2j-F8d-312" target="shRPoWkxmLKZgk2j-F8d-416">
          <mxGeometry relative="1" as="geometry">
            <Array as="points">
              <mxPoint x="945" y="858" />
            </Array>
          </mxGeometry>
        </mxCell>
        <mxCell id="shRPoWkxmLKZgk2j-F8d-585" value="rider operational profile" style="curved=1;startArrow=ERmandOne;startSize=10;;endArrow=ERzeroToMany;endSize=10;;exitX=0;exitY=0.63;entryX=0.5;entryY=0;rounded=1;fontSize=13;labelBackgroundColor=none;fontColor=default;strokeColor=#028090;" edge="1" parent="1" source="shRPoWkxmLKZgk2j-F8d-312" target="shRPoWkxmLKZgk2j-F8d-425">
          <mxGeometry relative="1" as="geometry">
            <Array as="points">
              <mxPoint x="1516" y="858" />
            </Array>
          </mxGeometry>
        </mxCell>
        <mxCell id="shRPoWkxmLKZgk2j-F8d-586" value="tracks location" style="curved=1;startArrow=ERmandOne;startSize=10;;endArrow=ERzeroToMany;endSize=10;;exitX=0;exitY=0.76;entryX=0.5;entryY=0;rounded=1;fontSize=13;labelBackgroundColor=none;fontColor=default;strokeColor=#028090;" edge="1" parent="1" source="shRPoWkxmLKZgk2j-F8d-312" target="shRPoWkxmLKZgk2j-F8d-458">
          <mxGeometry relative="1" as="geometry">
            <Array as="points">
              <mxPoint x="2086" y="858" />
            </Array>
          </mxGeometry>
        </mxCell>
        <mxCell id="shRPoWkxmLKZgk2j-F8d-587" value="availability status" style="curved=1;startArrow=ERmandOne;startSize=10;;endArrow=ERzeroToMany;endSize=10;;exitX=0.55;exitY=1;entryX=0.5;entryY=0;rounded=1;fontSize=13;labelBackgroundColor=none;fontColor=default;strokeColor=#028090;" edge="1" parent="1" source="shRPoWkxmLKZgk2j-F8d-312" target="shRPoWkxmLKZgk2j-F8d-475">
          <mxGeometry relative="1" as="geometry">
            <Array as="points">
              <mxPoint x="2683" y="858" />
            </Array>
          </mxGeometry>
        </mxCell>
        <mxCell id="shRPoWkxmLKZgk2j-F8d-588" value="generates" style="curved=1;startArrow=ERmandOne;startSize=10;;endArrow=ERzeroToMany;endSize=10;;exitX=0.89;exitY=1;entryX=0;entryY=0.45;rounded=1;fontSize=13;labelBackgroundColor=none;fontColor=default;strokeColor=#028090;" edge="1" parent="1" source="shRPoWkxmLKZgk2j-F8d-354" target="shRPoWkxmLKZgk2j-F8d-517">
          <mxGeometry relative="1" as="geometry">
            <Array as="points">
              <mxPoint x="578" y="1473" />
            </Array>
          </mxGeometry>
        </mxCell>
        <mxCell id="shRPoWkxmLKZgk2j-F8d-589" value="involved in" style="curved=1;startArrow=ERmandOne;startSize=10;;endArrow=ERzeroToMany;endSize=10;;exitX=1;exitY=0.65;entryX=1;entryY=0.26;rounded=1;fontSize=13;labelBackgroundColor=none;fontColor=default;strokeColor=#028090;" edge="1" parent="1" source="shRPoWkxmLKZgk2j-F8d-312" target="shRPoWkxmLKZgk2j-F8d-517">
          <mxGeometry relative="1" as="geometry">
            <Array as="points">
              <mxPoint x="3589" y="858" />
              <mxPoint x="3589" y="1473" />
            </Array>
          </mxGeometry>
        </mxCell>
        <mxCell id="shRPoWkxmLKZgk2j-F8d-590" value="ledger" style="curved=1;startArrow=ERmandOne;startSize=10;;endArrow=ERzeroToMany;endSize=10;;exitX=1;exitY=0.73;entryX=0.5;entryY=0;rounded=1;fontSize=13;labelBackgroundColor=none;fontColor=default;strokeColor=#028090;" edge="1" parent="1" source="shRPoWkxmLKZgk2j-F8d-312" target="shRPoWkxmLKZgk2j-F8d-542">
          <mxGeometry relative="1" as="geometry">
            <Array as="points">
              <mxPoint x="3271" y="858" />
            </Array>
          </mxGeometry>
        </mxCell>
        <mxCell id="shRPoWkxmLKZgk2j-F8d-591" value="reviewed booking" style="curved=1;startArrow=ERmandOne;startSize=10;;endArrow=ERzeroToMany;endSize=10;;exitX=1;exitY=0.55;entryX=0;entryY=0.01;rounded=1;fontSize=13;labelBackgroundColor=none;fontColor=default;strokeColor=#028090;" edge="1" parent="1" source="shRPoWkxmLKZgk2j-F8d-354" target="shRPoWkxmLKZgk2j-F8d-555">
          <mxGeometry relative="1" as="geometry">
            <Array as="points">
              <mxPoint x="3674" y="1473" />
            </Array>
          </mxGeometry>
        </mxCell>
        <mxCell id="shRPoWkxmLKZgk2j-F8d-592" value="customer gives feedback" style="curved=1;startArrow=ERmandOne;startSize=10;;endArrow=ERzeroToMany;endSize=10;;exitX=1;exitY=0.63;entryX=0.15;entryY=0;rounded=1;fontSize=13;labelBackgroundColor=none;fontColor=default;strokeColor=#028090;" edge="1" parent="1" source="shRPoWkxmLKZgk2j-F8d-312" target="shRPoWkxmLKZgk2j-F8d-555">
          <mxGeometry relative="1" as="geometry">
            <Array as="points">
              <mxPoint x="3759" y="858" />
              <mxPoint x="3759" y="1473" />
            </Array>
          </mxGeometry>
        </mxCell>
        <mxCell id="shRPoWkxmLKZgk2j-F8d-593" value="rider reviewed" style="curved=1;startArrow=ERmandOne;startSize=10;;endArrow=ERzeroToMany;endSize=10;;exitX=1;exitY=0.61;entryX=0.66;entryY=0;rounded=1;fontSize=13;labelBackgroundColor=none;fontColor=default;strokeColor=#028090;" edge="1" parent="1" source="shRPoWkxmLKZgk2j-F8d-312" target="shRPoWkxmLKZgk2j-F8d-555">
          <mxGeometry relative="1" as="geometry">
            <Array as="points">
              <mxPoint x="4022" y="858" />
              <mxPoint x="4022" y="1473" />
            </Array>
          </mxGeometry>
        </mxCell>
      </root>
    </mxGraphModel>
  </diagram>
</mxfile>
